0
SECTION
2
HEADER
9
$ACADVER
1
AC1003
9
$EXTMIN
10
0.000000
20
0.000000
9
$EXTMAX
10
1178.000000
20
1166.000000
9
$LIMMIN
10
0.000000
20
0.000000
9
$LIMMAX
10
1178.000000
20
1166.000000
0
ENDSEC
0
SECTION
2
TABLES
0
TABLE
2
LAYER
70
1
0
LAYER
2
0
70
64
62
3
6
CONTINUOUS
0
ENDTAB
0
ENDSEC
0
SECTION
2
BLOCKS
0
ENDSEC
0
SECTION
2
ENTITIES
0
POLYLINE
8
0
6
CONTINUOUS
66
1
10
0.0
20
0.0
30
0.000000
0
VERTEX
8
0
10
59.000000
20
1149.000000
30
0.000000
0
VERTEX
8
0
10
111.000000
20
1149.000000
30
0.000000
0
VERTEX
8
0
10
112.000000
20
1141.000000
30
0.000000
0
VERTEX
8
0
10
131.000000
20
1141.000000
30
0.000000
0
VERTEX
8
0
10
133.000000
20
1143.000000
30
0.000000
0
VERTEX
8
0
10
134.000000
20
1149.000000
30
0.000000
0
VERTEX
8
0
10
186.000000
20
1149.000000
30
0.000000
0
VERTEX
8
0
10
186.000000
20
1122.000000
30
0.000000
0
VERTEX
8
0
10
178.000000
20
1121.000000
30
0.000000
0
VERTEX
8
0
10
178.000000
20
1101.000000
30
0.000000
0
VERTEX
8
0
10
186.000000
20
1099.000000
30
0.000000
0
VERTEX
8
0
10
186.000000
20
1072.000000
30
0.000000
0
VERTEX
8
0
10
178.000000
20
1070.000000
30
0.000000
0
VERTEX
8
0
10
178.000000
20
1050.000000
30
0.000000
0
VERTEX
8
0
10
186.000000
20
1048.000000
30
0.000000
0
VERTEX
8
0
10
186.000000
20
1022.000000
30
0.000000
0
VERTEX
8
0
10
178.000000
20
1020.000000
30
0.000000
0
VERTEX
8
0
10
178.000000
20
1000.000000
30
0.000000
0
VERTEX
8
0
10
186.000000
20
998.000000
30
0.000000
0
VERTEX
8
0
10
186.000000
20
971.000000
30
0.000000
0
VERTEX
8
0
10
178.000000
20
969.000000
30
0.000000
0
VERTEX
8
0
10
178.000000
20
949.000000
30
0.000000
0
VERTEX
8
0
10
186.000000
20
948.000000
30
0.000000
0
VERTEX
8
0
10
186.000000
20
921.000000
30
0.000000
0
VERTEX
8
0
10
178.000000
20
919.000000
30
0.000000
0
VERTEX
8
0
10
178.000000
20
899.000000
30
0.000000
0
VERTEX
8
0
10
186.000000
20
897.000000
30
0.000000
0
VERTEX
8
0
10
186.000000
20
870.000000
30
0.000000
0
VERTEX
8
0
10
178.000000
20
869.000000
30
0.000000
0
VERTEX
8
0
10
178.000000
20
849.000000
30
0.000000
0
VERTEX
8
0
10
186.000000
20
847.000000
30
0.000000
0
VERTEX
8
0
10
186.000000
20
820.000000
30
0.000000
0
VERTEX
8
0
10
180.000000
20
820.000000
30
0.000000
0
VERTEX
8
0
10
178.000000
20
818.000000
30
0.000000
0
VERTEX
8
0
10
178.000000
20
798.000000
30
0.000000
0
VERTEX
8
0
10
186.000000
20
796.000000
30
0.000000
0
VERTEX
8
0
10
186.000000
20
770.000000
30
0.000000
0
VERTEX
8
0
10
178.000000
20
768.000000
30
0.000000
0
VERTEX
8
0
10
178.000000
20
748.000000
30
0.000000
0
VERTEX
8
0
10
186.000000
20
746.000000
30
0.000000
0
VERTEX
8
0
10
186.000000
20
719.000000
30
0.000000
0
VERTEX
8
0
10
178.000000
20
717.000000
30
0.000000
0
VERTEX
8
0
10
178.000000
20
697.000000
30
0.000000
0
VERTEX
8
0
10
186.000000
20
696.000000
30
0.000000
0
VERTEX
8
0
10
186.000000
20
669.000000
30
0.000000
0
VERTEX
8
0
10
178.000000
20
667.000000
30
0.000000
0
VERTEX
8
0
10
178.000000
20
647.000000
30
0.000000
0
VERTEX
8
0
10
186.000000
20
645.000000
30
0.000000
0
VERTEX
8
0
10
186.000000
20
618.000000
30
0.000000
0
VERTEX
8
0
10
178.000000
20
617.000000
30
0.000000
0
VERTEX
8
0
10
178.000000
20
597.000000
30
0.000000
0
VERTEX
8
0
10
186.000000
20
595.000000
30
0.000000
0
VERTEX
8
0
10
185.000000
20
568.000000
30
0.000000
0
VERTEX
8
0
10
134.000000
20
568.000000
30
0.000000
0
VERTEX
8
0
10
132.000000
20
576.000000
30
0.000000
0
VERTEX
8
0
10
112.000000
20
576.000000
30
0.000000
0
VERTEX
8
0
10
111.000000
20
568.000000
30
0.000000
0
VERTEX
8
0
10
59.000000
20
568.000000
30
0.000000
0
VERTEX
8
0
10
59.000000
20
898.000000
30
0.000000
0
VERTEX
8
0
10
66.000000
20
899.000000
30
0.000000
0
VERTEX
8
0
10
66.000000
20
919.000000
30
0.000000
0
VERTEX
8
0
10
59.000000
20
920.000000
30
0.000000
0
VERTEX
8
0
10
59.000000
20
948.000000
30
0.000000
0
VERTEX
8
0
10
66.000000
20
949.000000
30
0.000000
0
VERTEX
8
0
10
66.000000
20
969.000000
30
0.000000
0
VERTEX
8
0
10
59.000000
20
971.000000
30
0.000000
0
VERTEX
8
0
10
59.000000
20
998.000000
30
0.000000
0
VERTEX
8
0
10
66.000000
20
1000.000000
30
0.000000
0
VERTEX
8
0
10
66.000000
20
1020.000000
30
0.000000
0
VERTEX
8
0
10
59.000000
20
1021.000000
30
0.000000
0
VERTEX
8
0
10
59.000000
20
1049.000000
30
0.000000
0
VERTEX
8
0
10
66.000000
20
1050.000000
30
0.000000
0
VERTEX
8
0
10
66.000000
20
1070.000000
30
0.000000
0
VERTEX
8
0
10
59.000000
20
1072.000000
30
0.000000
0
VERTEX
8
0
10
59.000000
20
1099.000000
30
0.000000
0
VERTEX
8
0
10
66.000000
20
1101.000000
30
0.000000
0
VERTEX
8
0
10
66.000000
20
1121.000000
30
0.000000
0
VERTEX
8
0
10
59.000000
20
1122.000000
30
0.000000
0
VERTEX
8
0
10
59.000000
20
1149.000000
30
0.000000
0
SEQEND
0
POLYLINE
8
0
6
CONTINUOUS
66
1
10
0.0
20
0.0
30
0.000000
0
VERTEX
8
0
10
207.000000
20
1149.000000
30
0.000000
0
VERTEX
8
0
10
235.000000
20
1149.000000
30
0.000000
0
VERTEX
8
0
10
235.000000
20
1143.000000
30
0.000000
0
VERTEX
8
0
10
237.000000
20
1141.000000
30
0.000000
0
VERTEX
8
0
10
255.000000
20
1141.000000
30
0.000000
0
VERTEX
8
0
10
257.000000
20
1143.000000
30
0.000000
0
VERTEX
8
0
10
258.000000
20
1149.000000
30
0.000000
0
VERTEX
8
0
10
286.000000
20
1149.000000
30
0.000000
0
VERTEX
8
0
10
288.000000
20
1141.000000
30
0.000000
0
VERTEX
8
0
10
307.000000
20
1141.000000
30
0.000000
0
VERTEX
8
0
10
309.000000
20
1143.000000
30
0.000000
0
VERTEX
8
0
10
309.000000
20
1149.000000
30
0.000000
0
VERTEX
8
0
10
337.000000
20
1149.000000
30
0.000000
0
VERTEX
8
0
10
339.000000
20
1141.000000
30
0.000000
0
VERTEX
8
0
10
358.000000
20
1141.000000
30
0.000000
0
VERTEX
8
0
10
360.000000
20
1143.000000
30
0.000000
0
VERTEX
8
0
10
361.000000
20
1149.000000
30
0.000000
0
VERTEX
8
0
10
389.000000
20
1149.000000
30
0.000000
0
VERTEX
8
0
10
389.000000
20
1143.000000
30
0.000000
0
VERTEX
8
0
10
391.000000
20
1141.000000
30
0.000000
0
VERTEX
8
0
10
410.000000
20
1141.000000
30
0.000000
0
VERTEX
8
0
10
412.000000
20
1143.000000
30
0.000000
0
VERTEX
8
0
10
412.000000
20
1149.000000
30
0.000000
0
VERTEX
8
0
10
440.000000
20
1149.000000
30
0.000000
0
VERTEX
8
0
10
442.000000
20
1141.000000
30
0.000000
0
VERTEX
8
0
10
461.000000
20
1141.000000
30
0.000000
0
VERTEX
8
0
10
463.000000
20
1143.000000
30
0.000000
0
VERTEX
8
0
10
463.000000
20
1149.000000
30
0.000000
0
VERTEX
8
0
10
491.000000
20
1149.000000
30
0.000000
0
VERTEX
8
0
10
492.000000
20
1143.000000
30
0.000000
0
VERTEX
8
0
10
494.000000
20
1141.000000
30
0.000000
0
VERTEX
8
0
10
512.000000
20
1141.000000
30
0.000000
0
VERTEX
8
0
10
514.000000
20
1143.000000
30
0.000000
0
VERTEX
8
0
10
515.000000
20
1149.000000
30
0.000000
0
VERTEX
8
0
10
543.000000
20
1149.000000
30
0.000000
0
VERTEX
8
0
10
543.000000
20
1143.000000
30
0.000000
0
VERTEX
8
0
10
546.000000
20
1141.000000
30
0.000000
0
VERTEX
8
0
10
564.000000
20
1141.000000
30
0.000000
0
VERTEX
8
0
10
566.000000
20
1143.000000
30
0.000000
0
VERTEX
8
0
10
566.000000
20
1149.000000
30
0.000000
0
VERTEX
8
0
10
594.000000
20
1149.000000
30
0.000000
0
VERTEX
8
0
10
596.000000
20
1141.000000
30
0.000000
0
VERTEX
8
0
10
615.000000
20
1141.000000
30
0.000000
0
VERTEX
8
0
10
617.000000
20
1143.000000
30
0.000000
0
VERTEX
8
0
10
617.000000
20
1149.000000
30
0.000000
0
VERTEX
8
0
10
645.000000
20
1149.000000
30
0.000000
0
VERTEX
8
0
10
647.000000
20
1141.000000
30
0.000000
0
VERTEX
8
0
10
666.000000
20
1141.000000
30
0.000000
0
VERTEX
8
0
10
668.000000
20
1143.000000
30
0.000000
0
VERTEX
8
0
10
668.000000
20
1149.000000
30
0.000000
0
VERTEX
8
0
10
696.000000
20
1149.000000
30
0.000000
0
VERTEX
8
0
10
697.000000
20
1125.000000
30
0.000000
0
VERTEX
8
0
10
705.000000
20
1123.000000
30
0.000000
0
VERTEX
8
0
10
705.000000
20
1098.000000
30
0.000000
0
VERTEX
8
0
10
697.000000
20
1096.000000
30
0.000000
0
VERTEX
8
0
10
697.000000
20
1074.000000
30
0.000000
0
VERTEX
8
0
10
705.000000
20
1072.000000
30
0.000000
0
VERTEX
8
0
10
705.000000
20
1048.000000
30
0.000000
0
VERTEX
8
0
10
697.000000
20
1046.000000
30
0.000000
0
VERTEX
8
0
10
697.000000
20
1024.000000
30
0.000000
0
VERTEX
8
0
10
705.000000
20
1022.000000
30
0.000000
0
VERTEX
8
0
10
705.000000
20
998.000000
30
0.000000
0
VERTEX
8
0
10
697.000000
20
996.000000
30
0.000000
0
VERTEX
8
0
10
697.000000
20
974.000000
30
0.000000
0
VERTEX
8
0
10
699.000000
20
972.000000
30
0.000000
0
VERTEX
8
0
10
705.000000
20
972.000000
30
0.000000
0
VERTEX
8
0
10
705.000000
20
947.000000
30
0.000000
0
VERTEX
8
0
10
697.000000
20
945.000000
30
0.000000
0
VERTEX
8
0
10
697.000000
20
924.000000
30
0.000000
0
VERTEX
8
0
10
699.000000
20
922.000000
30
0.000000
0
VERTEX
8
0
10
703.000000
20
923.000000
30
0.000000
0
VERTEX
8
0
10
705.000000
20
921.000000
30
0.000000
0
VERTEX
8
0
10
705.000000
20
897.000000
30
0.000000
0
VERTEX
8
0
10
697.000000
20
895.000000
30
0.000000
0
VERTEX
8
0
10
697.000000
20
873.000000
30
0.000000
0
VERTEX
8
0
10
705.000000
20
871.000000
30
0.000000
0
VERTEX
8
0
10
705.000000
20
846.000000
30
0.000000
0
VERTEX
8
0
10
697.000000
20
844.000000
30
0.000000
0
VERTEX
8
0
10
697.000000
20
822.000000
30
0.000000
0
VERTEX
8
0
10
705.000000
20
820.000000
30
0.000000
0
VERTEX
8
0
10
705.000000
20
796.000000
30
0.000000
0
VERTEX
8
0
10
697.000000
20
794.000000
30
0.000000
0
VERTEX
8
0
10
697.000000
20
772.000000
30
0.000000
0
VERTEX
8
0
10
705.000000
20
770.000000
30
0.000000
0
VERTEX
8
0
10
705.000000
20
745.000000
30
0.000000
0
VERTEX
8
0
10
697.000000
20
744.000000
30
0.000000
0
VERTEX
8
0
10
697.000000
20
722.000000
30
0.000000
0
VERTEX
8
0
10
699.000000
20
720.000000
30
0.000000
0
VERTEX
8
0
10
705.000000
20
720.000000
30
0.000000
0
VERTEX
8
0
10
705.000000
20
695.000000
30
0.000000
0
VERTEX
8
0
10
697.000000
20
693.000000
30
0.000000
0
VERTEX
8
0
10
697.000000
20
672.000000
30
0.000000
0
VERTEX
8
0
10
703.000000
20
671.000000
30
0.000000
0
VERTEX
8
0
10
705.000000
20
669.000000
30
0.000000
0
VERTEX
8
0
10
705.000000
20
645.000000
30
0.000000
0
VERTEX
8
0
10
697.000000
20
643.000000
30
0.000000
0
VERTEX
8
0
10
697.000000
20
621.000000
30
0.000000
0
VERTEX
8
0
10
705.000000
20
619.000000
30
0.000000
0
VERTEX
8
0
10
705.000000
20
594.000000
30
0.000000
0
VERTEX
8
0
10
697.000000
20
592.000000
30
0.000000
0
VERTEX
8
0
10
696.000000
20
568.000000
30
0.000000
0
VERTEX
8
0
10
669.000000
20
568.000000
30
0.000000
0
VERTEX
8
0
10
667.000000
20
576.000000
30
0.000000
0
VERTEX
8
0
10
647.000000
20
576.000000
30
0.000000
0
VERTEX
8
0
10
645.000000
20
568.000000
30
0.000000
0
VERTEX
8
0
10
617.000000
20
568.000000
30
0.000000
0
VERTEX
8
0
10
616.000000
20
576.000000
30
0.000000
0
VERTEX
8
0
10
596.000000
20
576.000000
30
0.000000
0
VERTEX
8
0
10
594.000000
20
568.000000
30
0.000000
0
VERTEX
8
0
10
566.000000
20
568.000000
30
0.000000
0
VERTEX
8
0
10
565.000000
20
576.000000
30
0.000000
0
VERTEX
8
0
10
544.000000
20
576.000000
30
0.000000
0
VERTEX
8
0
10
542.000000
20
568.000000
30
0.000000
0
VERTEX
8
0
10
515.000000
20
568.000000
30
0.000000
0
VERTEX
8
0
10
513.000000
20
576.000000
30
0.000000
0
VERTEX
8
0
10
493.000000
20
576.000000
30
0.000000
0
VERTEX
8
0
10
491.000000
20
568.000000
30
0.000000
0
VERTEX
8
0
10
463.000000
20
568.000000
30
0.000000
0
VERTEX
8
0
10
463.000000
20
574.000000
30
0.000000
0
VERTEX
8
0
10
461.000000
20
576.000000
30
0.000000
0
VERTEX
8
0
10
442.000000
20
576.000000
30
0.000000
0
VERTEX
8
0
10
440.000000
20
568.000000
30
0.000000
0
VERTEX
8
0
10
412.000000
20
568.000000
30
0.000000
0
VERTEX
8
0
10
412.000000
20
574.000000
30
0.000000
0
VERTEX
8
0
10
410.000000
20
576.000000
30
0.000000
0
VERTEX
8
0
10
390.000000
20
576.000000
30
0.000000
0
VERTEX
8
0
10
389.000000
20
568.000000
30
0.000000
0
VERTEX
8
0
10
361.000000
20
568.000000
30
0.000000
0
VERTEX
8
0
10
359.000000
20
576.000000
30
0.000000
0
VERTEX
8
0
10
339.000000
20
576.000000
30
0.000000
0
VERTEX
8
0
10
337.000000
20
568.000000
30
0.000000
0
VERTEX
8
0
10
309.000000
20
568.000000
30
0.000000
0
VERTEX
8
0
10
309.000000
20
573.000000
30
0.000000
0
VERTEX
8
0
10
307.000000
20
576.000000
30
0.000000
0
VERTEX
8
0
10
288.000000
20
576.000000
30
0.000000
0
VERTEX
8
0
10
286.000000
20
568.000000
30
0.000000
0
VERTEX
8
0
10
258.000000
20
568.000000
30
0.000000
0
VERTEX
8
0
10
256.000000
20
576.000000
30
0.000000
0
VERTEX
8
0
10
237.000000
20
576.000000
30
0.000000
0
VERTEX
8
0
10
235.000000
20
574.000000
30
0.000000
0
VERTEX
8
0
10
235.000000
20
568.000000
30
0.000000
0
VERTEX
8
0
10
207.000000
20
568.000000
30
0.000000
0
VERTEX
8
0
10
207.000000
20
592.000000
30
0.000000
0
VERTEX
8
0
10
199.000000
20
594.000000
30
0.000000
0
VERTEX
8
0
10
199.000000
20
620.000000
30
0.000000
0
VERTEX
8
0
10
207.000000
20
621.000000
30
0.000000
0
VERTEX
8
0
10
207.000000
20
642.000000
30
0.000000
0
VERTEX
8
0
10
205.000000
20
644.000000
30
0.000000
0
VERTEX
8
0
10
199.000000
20
644.000000
30
0.000000
0
VERTEX
8
0
10
199.000000
20
670.000000
30
0.000000
0
VERTEX
8
0
10
207.000000
20
672.000000
30
0.000000
0
VERTEX
8
0
10
207.000000
20
693.000000
30
0.000000
0
VERTEX
8
0
10
199.000000
20
694.000000
30
0.000000
0
VERTEX
8
0
10
199.000000
20
720.000000
30
0.000000
0
VERTEX
8
0
10
205.000000
20
720.000000
30
0.000000
0
VERTEX
8
0
10
207.000000
20
722.000000
30
0.000000
0
VERTEX
8
0
10
207.000000
20
743.000000
30
0.000000
0
VERTEX
8
0
10
205.000000
20
745.000000
30
0.000000
0
VERTEX
8
0
10
199.000000
20
745.000000
30
0.000000
0
VERTEX
8
0
10
199.000000
20
771.000000
30
0.000000
0
VERTEX
8
0
10
205.000000
20
771.000000
30
0.000000
0
VERTEX
8
0
10
207.000000
20
773.000000
30
0.000000
0
VERTEX
8
0
10
207.000000
20
793.000000
30
0.000000
0
VERTEX
8
0
10
205.000000
20
795.000000
30
0.000000
0
VERTEX
8
0
10
199.000000
20
795.000000
30
0.000000
0
VERTEX
8
0
10
199.000000
20
821.000000
30
0.000000
0
VERTEX
8
0
10
205.000000
20
821.000000
30
0.000000
0
VERTEX
8
0
10
207.000000
20
823.000000
30
0.000000
0
VERTEX
8
0
10
207.000000
20
844.000000
30
0.000000
0
VERTEX
8
0
10
199.000000
20
846.000000
30
0.000000
0
VERTEX
8
0
10
199.000000
20
872.000000
30
0.000000
0
VERTEX
8
0
10
207.000000
20
873.000000
30
0.000000
0
VERTEX
8
0
10
207.000000
20
894.000000
30
0.000000
0
VERTEX
8
0
10
205.000000
20
896.000000
30
0.000000
0
VERTEX
8
0
10
199.000000
20
896.000000
30
0.000000
0
VERTEX
8
0
10
199.000000
20
922.000000
30
0.000000
0
VERTEX
8
0
10
205.000000
20
922.000000
30
0.000000
0
VERTEX
8
0
10
207.000000
20
924.000000
30
0.000000
0
VERTEX
8
0
10
207.000000
20
945.000000
30
0.000000
0
VERTEX
8
0
10
199.000000
20
946.000000
30
0.000000
0
VERTEX
8
0
10
199.000000
20
972.000000
30
0.000000
0
VERTEX
8
0
10
207.000000
20
974.000000
30
0.000000
0
VERTEX
8
0
10
207.000000
20
996.000000
30
0.000000
0
VERTEX
8
0
10
199.000000
20
997.000000
30
0.000000
0
VERTEX
8
0
10
199.000000
20
1023.000000
30
0.000000
0
VERTEX
8
0
10
205.000000
20
1023.000000
30
0.000000
0
VERTEX
8
0
10
207.000000
20
1025.000000
30
0.000000
0
VERTEX
8
0
10
207.000000
20
1045.000000
30
0.000000
0
VERTEX
8
0
10
205.000000
20
1047.000000
30
0.000000
0
VERTEX
8
0
10
199.000000
20
1047.000000
30
0.000000
0
VERTEX
8
0
10
199.000000
20
1073.000000
30
0.000000
0
VERTEX
8
0
10
205.000000
20
1073.000000
30
0.000000
0
VERTEX
8
0
10
207.000000
20
1075.000000
30
0.000000
0
VERTEX
8
0
10
207.000000
20
1096.000000
30
0.000000
0
VERTEX
8
0
10
199.000000
20
1098.000000
30
0.000000
0
VERTEX
8
0
10
199.000000
20
1124.000000
30
0.000000
0
VERTEX
8
0
10
207.000000
20
1125.000000
30
0.000000
0
VERTEX
8
0
10
207.000000
20
1149.000000
30
0.000000
0
SEQEND
0
POLYLINE
8
0
6
CONTINUOUS
66
1
10
0.0
20
0.0
30
0.000000
0
VERTEX
8
0
10
715.000000
20
1149.000000
30
0.000000
0
VERTEX
8
0
10
766.000000
20
1149.000000
30
0.000000
0
VERTEX
8
0
10
766.000000
20
1143.000000
30
0.000000
0
VERTEX
8
0
10
768.000000
20
1141.000000
30
0.000000
0
VERTEX
8
0
10
787.000000
20
1141.000000
30
0.000000
0
VERTEX
8
0
10
789.000000
20
1143.000000
30
0.000000
0
VERTEX
8
0
10
790.000000
20
1149.000000
30
0.000000
0
VERTEX
8
0
10
841.000000
20
1149.000000
30
0.000000
0
VERTEX
8
0
10
842.000000
20
1124.000000
30
0.000000
0
VERTEX
8
0
10
841.000000
20
1122.000000
30
0.000000
0
VERTEX
8
0
10
834.000000
20
1121.000000
30
0.000000
0
VERTEX
8
0
10
834.000000
20
1101.000000
30
0.000000
0
VERTEX
8
0
10
841.000000
20
1100.000000
30
0.000000
0
VERTEX
8
0
10
842.000000
20
1073.000000
30
0.000000
0
VERTEX
8
0
10
840.000000
20
1071.000000
30
0.000000
0
VERTEX
8
0
10
834.000000
20
1070.000000
30
0.000000
0
VERTEX
8
0
10
834.000000
20
1050.000000
30
0.000000
0
VERTEX
8
0
10
841.000000
20
1049.000000
30
0.000000
0
VERTEX
8
0
10
841.000000
20
1021.000000
30
0.000000
0
VERTEX
8
0
10
834.000000
20
1020.000000
30
0.000000
0
VERTEX
8
0
10
834.000000
20
1000.000000
30
0.000000
0
VERTEX
8
0
10
840.000000
20
999.000000
30
0.000000
0
VERTEX
8
0
10
842.000000
20
997.000000
30
0.000000
0
VERTEX
8
0
10
842.000000
20
972.000000
30
0.000000
0
VERTEX
8
0
10
840.000000
20
970.000000
30
0.000000
0
VERTEX
8
0
10
834.000000
20
969.000000
30
0.000000
0
VERTEX
8
0
10
834.000000
20
949.000000
30
0.000000
0
VERTEX
8
0
10
841.000000
20
948.000000
30
0.000000
0
VERTEX
8
0
10
842.000000
20
923.000000
30
0.000000
0
VERTEX
8
0
10
841.000000
20
920.000000
30
0.000000
0
VERTEX
8
0
10
834.000000
20
919.000000
30
0.000000
0
VERTEX
8
0
10
834.000000
20
899.000000
30
0.000000
0
VERTEX
8
0
10
842.000000
20
897.000000
30
0.000000
0
VERTEX
8
0
10
842.000000
20
570.000000
30
0.000000
0
VERTEX
8
0
10
841.000000
20
568.000000
30
0.000000
0
VERTEX
8
0
10
790.000000
20
568.000000
30
0.000000
0
VERTEX
8
0
10
788.000000
20
576.000000
30
0.000000
0
VERTEX
8
0
10
768.000000
20
576.000000
30
0.000000
0
VERTEX
8
0
10
766.000000
20
574.000000
30
0.000000
0
VERTEX
8
0
10
766.000000
20
568.000000
30
0.000000
0
VERTEX
8
0
10
715.000000
20
568.000000
30
0.000000
0
VERTEX
8
0
10
714.000000
20
594.000000
30
0.000000
0
VERTEX
8
0
10
715.000000
20
596.000000
30
0.000000
0
VERTEX
8
0
10
722.000000
20
597.000000
30
0.000000
0
VERTEX
8
0
10
722.000000
20
616.000000
30
0.000000
0
VERTEX
8
0
10
720.000000
20
618.000000
30
0.000000
0
VERTEX
8
0
10
714.000000
20
619.000000
30
0.000000
0
VERTEX
8
0
10
714.000000
20
645.000000
30
0.000000
0
VERTEX
8
0
10
722.000000
20
647.000000
30
0.000000
0
VERTEX
8
0
10
722.000000
20
667.000000
30
0.000000
0
VERTEX
8
0
10
714.000000
20
669.000000
30
0.000000
0
VERTEX
8
0
10
714.000000
20
695.000000
30
0.000000
0
VERTEX
8
0
10
722.000000
20
697.000000
30
0.000000
0
VERTEX
8
0
10
722.000000
20
717.000000
30
0.000000
0
VERTEX
8
0
10
716.000000
20
718.000000
30
0.000000
0
VERTEX
8
0
10
714.000000
20
720.000000
30
0.000000
0
VERTEX
8
0
10
714.000000
20
745.000000
30
0.000000
0
VERTEX
8
0
10
715.000000
20
747.000000
30
0.000000
0
VERTEX
8
0
10
722.000000
20
748.000000
30
0.000000
0
VERTEX
8
0
10
722.000000
20
768.000000
30
0.000000
0
VERTEX
8
0
10
714.000000
20
770.000000
30
0.000000
0
VERTEX
8
0
10
714.000000
20
796.000000
30
0.000000
0
VERTEX
8
0
10
722.000000
20
798.000000
30
0.000000
0
VERTEX
8
0
10
722.000000
20
818.000000
30
0.000000
0
VERTEX
8
0
10
720.000000
20
820.000000
30
0.000000
0
VERTEX
8
0
10
717.000000
20
819.000000
30
0.000000
0
VERTEX
8
0
10
714.000000
20
821.000000
30
0.000000
0
VERTEX
8
0
10
714.000000
20
846.000000
30
0.000000
0
VERTEX
8
0
10
715.000000
20
848.000000
30
0.000000
0
VERTEX
8
0
10
722.000000
20
849.000000
30
0.000000
0
VERTEX
8
0
10
722.000000
20
868.000000
30
0.000000
0
VERTEX
8
0
10
720.000000
20
870.000000
30
0.000000
0
VERTEX
8
0
10
715.000000
20
870.000000
30
0.000000
0
VERTEX
8
0
10
714.000000
20
897.000000
30
0.000000
0
VERTEX
8
0
10
720.000000
20
898.000000
30
0.000000
0
VERTEX
8
0
10
722.000000
20
900.000000
30
0.000000
0
VERTEX
8
0
10
722.000000
20
919.000000
30
0.000000
0
VERTEX
8
0
10
714.000000
20
921.000000
30
0.000000
0
VERTEX
8
0
10
714.000000
20
946.000000
30
0.000000
0
VERTEX
8
0
10
715.000000
20
948.000000
30
0.000000
0
VERTEX
8
0
10
720.000000
20
948.000000
30
0.000000
0
VERTEX
8
0
10
722.000000
20
950.000000
30
0.000000
0
VERTEX
8
0
10
722.000000
20
969.000000
30
0.000000
0
VERTEX
8
0
10
715.000000
20
970.000000
30
0.000000
0
VERTEX
8
0
10
714.000000
20
997.000000
30
0.000000
0
VERTEX
8
0
10
715.000000
20
999.000000
30
0.000000
0
VERTEX
8
0
10
722.000000
20
1000.000000
30
0.000000
0
VERTEX
8
0
10
722.000000
20
1020.000000
30
0.000000
0
VERTEX
8
0
10
714.000000
20
1022.000000
30
0.000000
0
VERTEX
8
0
10
714.000000
20
1048.000000
30
0.000000
0
VERTEX
8
0
10
722.000000
20
1050.000000
30
0.000000
0
VERTEX
8
0
10
722.000000
20
1070.000000
30
0.000000
0
VERTEX
8
0
10
715.000000
20
1071.000000
30
0.000000
0
VERTEX
8
0
10
714.000000
20
1098.000000
30
0.000000
0
VERTEX
8
0
10
715.000000
20
1100.000000
30
0.000000
0
VERTEX
8
0
10
722.000000
20
1101.000000
30
0.000000
0
VERTEX
8
0
10
722.000000
20
1120.000000
30
0.000000
0
VERTEX
8
0
10
720.000000
20
1122.000000
30
0.000000
0
VERTEX
8
0
10
714.000000
20
1123.000000
30
0.000000
0
VERTEX
8
0
10
715.000000
20
1149.000000
30
0.000000
0
SEQEND
0
POLYLINE
8
0
6
CONTINUOUS
66
1
10
0.0
20
0.0
30
0.000000
0
VERTEX
8
0
10
910.000000
20
1148.000000
30
0.000000
0
VERTEX
8
0
10
936.000000
20
1148.000000
30
0.000000
0
VERTEX
8
0
10
936.000000
20
1143.000000
30
0.000000
0
VERTEX
8
0
10
938.000000
20
1141.000000
30
0.000000
0
VERTEX
8
0
10
944.000000
20
1140.000000
30
0.000000
0
VERTEX
8
0
10
936.000000
20
1140.000000
30
0.000000
0
VERTEX
8
0
10
936.000000
20
1145.000000
30
0.000000
0
VERTEX
8
0
10
934.000000
20
1147.000000
30
0.000000
0
VERTEX
8
0
10
912.000000
20
1147.000000
30
0.000000
0
VERTEX
8
0
10
910.000000
20
1140.000000
30
0.000000
0
VERTEX
8
0
10
862.000000
20
1140.000000
30
0.000000
0
VERTEX
8
0
10
860.000000
20
1138.000000
30
0.000000
0
VERTEX
8
0
10
860.000000
20
821.000000
30
0.000000
0
VERTEX
8
0
10
863.000000
20
819.000000
30
0.000000
0
VERTEX
8
0
10
909.000000
20
820.000000
30
0.000000
0
VERTEX
8
0
10
911.000000
20
819.000000
30
0.000000
0
VERTEX
8
0
10
912.000000
20
811.000000
30
0.000000
0
VERTEX
8
0
10
934.000000
20
812.000000
30
0.000000
0
VERTEX
8
0
10
936.000000
20
820.000000
30
0.000000
0
VERTEX
8
0
10
976.000000
20
819.000000
30
0.000000
0
VERTEX
8
0
10
978.000000
20
821.000000
30
0.000000
0
VERTEX
8
0
10
979.000000
20
1136.000000
30
0.000000
0
VERTEX
8
0
10
979.000000
20
819.000000
30
0.000000
0
VERTEX
8
0
10
938.000000
20
819.000000
30
0.000000
0
VERTEX
8
0
10
936.000000
20
817.000000
30
0.000000
0
VERTEX
8
0
10
936.000000
20
811.000000
30
0.000000
0
VERTEX
8
0
10
910.000000
20
811.000000
30
0.000000
0
VERTEX
8
0
10
909.000000
20
819.000000
30
0.000000
0
VERTEX
8
0
10
860.000000
20
819.000000
30
0.000000
0
VERTEX
8
0
10
859.000000
20
1139.000000
30
0.000000
0
VERTEX
8
0
10
860.000000
20
1141.000000
30
0.000000
0
VERTEX
8
0
10
909.000000
20
1141.000000
30
0.000000
0
VERTEX
8
0
10
910.000000
20
1148.000000
30
0.000000
0
SEQEND
0
POLYLINE
8
0
6
CONTINUOUS
66
1
10
0.0
20
0.0
30
0.000000
0
VERTEX
8
0
10
108.000000
20
1147.000000
30
0.000000
0
VERTEX
8
0
10
107.000000
20
1148.000000
30
0.000000
0
VERTEX
8
0
10
62.000000
20
1148.000000
30
0.000000
0
VERTEX
8
0
10
60.000000
20
1146.000000
30
0.000000
0
VERTEX
8
0
10
60.000000
20
1124.000000
30
0.000000
0
VERTEX
8
0
10
68.000000
20
1122.000000
30
0.000000
0
VERTEX
8
0
10
68.000000
20
1099.000000
30
0.000000
0
VERTEX
8
0
10
60.000000
20
1097.000000
30
0.000000
0
VERTEX
8
0
10
60.000000
20
1074.000000
30
0.000000
0
VERTEX
8
0
10
67.000000
20
1073.000000
30
0.000000
0
VERTEX
8
0
10
68.000000
20
1049.000000
30
0.000000
0
VERTEX
8
0
10
60.000000
20
1047.000000
30
0.000000
0
VERTEX
8
0
10
60.000000
20
1023.000000
30
0.000000
0
VERTEX
8
0
10
68.000000
20
1021.000000
30
0.000000
0
VERTEX
8
0
10
68.000000
20
999.000000
30
0.000000
0
VERTEX
8
0
10
67.000000
20
997.000000
30
0.000000
0
VERTEX
8
0
10
60.000000
20
996.000000
30
0.000000
0
VERTEX
8
0
10
60.000000
20
973.000000
30
0.000000
0
VERTEX
8
0
10
67.000000
20
972.000000
30
0.000000
0
VERTEX
8
0
10
68.000000
20
948.000000
30
0.000000
0
VERTEX
8
0
10
60.000000
20
946.000000
30
0.000000
0
VERTEX
8
0
10
60.000000
20
923.000000
30
0.000000
0
VERTEX
8
0
10
62.000000
20
921.000000
30
0.000000
0
VERTEX
8
0
10
66.000000
20
922.000000
30
0.000000
0
VERTEX
8
0
10
68.000000
20
920.000000
30
0.000000
0
VERTEX
8
0
10
68.000000
20
898.000000
30
0.000000
0
VERTEX
8
0
10
66.000000
20
896.000000
30
0.000000
0
VERTEX
8
0
10
60.000000
20
895.000000
30
0.000000
0
VERTEX
8
0
10
60.000000
20
571.000000
30
0.000000
0
VERTEX
8
0
10
109.000000
20
570.000000
30
0.000000
0
VERTEX
8
0
10
110.000000
20
577.000000
30
0.000000
0
VERTEX
8
0
10
134.000000
20
577.000000
30
0.000000
0
VERTEX
8
0
10
136.000000
20
570.000000
30
0.000000
0
VERTEX
8
0
10
184.000000
20
571.000000
30
0.000000
0
VERTEX
8
0
10
184.000000
20
593.000000
30
0.000000
0
VERTEX
8
0
10
177.000000
20
595.000000
30
0.000000
0
VERTEX
8
0
10
177.000000
20
619.000000
30
0.000000
0
VERTEX
8
0
10
183.000000
20
619.000000
30
0.000000
0
VERTEX
8
0
10
185.000000
20
621.000000
30
0.000000
0
VERTEX
8
0
10
185.000000
20
640.000000
30
0.000000
0
VERTEX
8
0
10
183.000000
20
644.000000
30
0.000000
0
VERTEX
8
0
10
177.000000
20
645.000000
30
0.000000
0
VERTEX
8
0
10
177.000000
20
669.000000
30
0.000000
0
VERTEX
8
0
10
184.000000
20
670.000000
30
0.000000
0
VERTEX
8
0
10
185.000000
20
693.000000
30
0.000000
0
VERTEX
8
0
10
183.000000
20
695.000000
30
0.000000
0
VERTEX
8
0
10
177.000000
20
695.000000
30
0.000000
0
VERTEX
8
0
10
177.000000
20
720.000000
30
0.000000
0
VERTEX
8
0
10
183.000000
20
720.000000
30
0.000000
0
VERTEX
8
0
10
185.000000
20
722.000000
30
0.000000
0
VERTEX
8
0
10
184.000000
20
744.000000
30
0.000000
0
VERTEX
8
0
10
177.000000
20
746.000000
30
0.000000
0
VERTEX
8
0
10
177.000000
20
770.000000
30
0.000000
0
VERTEX
8
0
10
183.000000
20
770.000000
30
0.000000
0
VERTEX
8
0
10
185.000000
20
772.000000
30
0.000000
0
VERTEX
8
0
10
185.000000
20
794.000000
30
0.000000
0
VERTEX
8
0
10
183.000000
20
796.000000
30
0.000000
0
VERTEX
8
0
10
177.000000
20
796.000000
30
0.000000
0
VERTEX
8
0
10
177.000000
20
820.000000
30
0.000000
0
VERTEX
8
0
10
183.000000
20
821.000000
30
0.000000
0
VERTEX
8
0
10
185.000000
20
823.000000
30
0.000000
0
VERTEX
8
0
10
185.000000
20
844.000000
30
0.000000
0
VERTEX
8
0
10
183.000000
20
846.000000
30
0.000000
0
VERTEX
8
0
10
177.000000
20
847.000000
30
0.000000
0
VERTEX
8
0
10
177.000000
20
871.000000
30
0.000000
0
VERTEX
8
0
10
183.000000
20
871.000000
30
0.000000
0
VERTEX
8
0
10
185.000000
20
873.000000
30
0.000000
0
VERTEX
8
0
10
184.000000
20
895.000000
30
0.000000
0
VERTEX
8
0
10
177.000000
20
897.000000
30
0.000000
0
VERTEX
8
0
10
177.000000
20
921.000000
30
0.000000
0
VERTEX
8
0
10
182.000000
20
921.000000
30
0.000000
0
VERTEX
8
0
10
185.000000
20
925.000000
30
0.000000
0
VERTEX
8
0
10
185.000000
20
945.000000
30
0.000000
0
VERTEX
8
0
10
183.000000
20
947.000000
30
0.000000
0
VERTEX
8
0
10
177.000000
20
947.000000
30
0.000000
0
VERTEX
8
0
10
177.000000
20
972.000000
30
0.000000
0
VERTEX
8
0
10
184.000000
20
973.000000
30
0.000000
0
VERTEX
8
0
10
185.000000
20
996.000000
30
0.000000
0
VERTEX
8
0
10
177.000000
20
997.000000
30
0.000000
0
VERTEX
8
0
10
177.000000
20
1022.000000
30
0.000000
0
VERTEX
8
0
10
184.000000
20
1023.000000
30
0.000000
0
VERTEX
8
0
10
184.000000
20
1047.000000
30
0.000000
0
VERTEX
8
0
10
177.000000
20
1048.000000
30
0.000000
0
VERTEX
8
0
10
177.000000
20
1072.000000
30
0.000000
0
VERTEX
8
0
10
184.000000
20
1074.000000
30
0.000000
0
VERTEX
8
0
10
184.000000
20
1097.000000
30
0.000000
0
VERTEX
8
0
10
177.000000
20
1099.000000
30
0.000000
0
VERTEX
8
0
10
177.000000
20
1123.000000
30
0.000000
0
VERTEX
8
0
10
183.000000
20
1123.000000
30
0.000000
0
VERTEX
8
0
10
185.000000
20
1125.000000
30
0.000000
0
VERTEX
8
0
10
184.000000
20
1146.000000
30
0.000000
0
VERTEX
8
0
10
182.000000
20
1148.000000
30
0.000000
0
VERTEX
8
0
10
137.000000
20
1148.000000
30
0.000000
0
VERTEX
8
0
10
135.000000
20
1146.000000
30
0.000000
0
VERTEX
8
0
10
134.000000
20
1140.000000
30
0.000000
0
VERTEX
8
0
10
111.000000
20
1140.000000
30
0.000000
0
VERTEX
8
0
10
110.000000
20
1146.000000
30
0.000000
0
VERTEX
8
0
10
108.000000
20
1147.000000
30
0.000000
0
SEQEND
0
POLYLINE
8
0
6
CONTINUOUS
66
1
10
0.0
20
0.0
30
0.000000
0
VERTEX
8
0
10
233.000000
20
1147.000000
30
0.000000
0
VERTEX
8
0
10
232.000000
20
1148.000000
30
0.000000
0
VERTEX
8
0
10
210.000000
20
1148.000000
30
0.000000
0
VERTEX
8
0
10
208.000000
20
1146.000000
30
0.000000
0
VERTEX
8
0
10
208.000000
20
1123.000000
30
0.000000
0
VERTEX
8
0
10
202.000000
20
1123.000000
30
0.000000
0
VERTEX
8
0
10
200.000000
20
1121.000000
30
0.000000
0
VERTEX
8
0
10
200.000000
20
1100.000000
30
0.000000
0
VERTEX
8
0
10
208.000000
20
1098.000000
30
0.000000
0
VERTEX
8
0
10
208.000000
20
1073.000000
30
0.000000
0
VERTEX
8
0
10
200.000000
20
1071.000000
30
0.000000
0
VERTEX
8
0
10
200.000000
20
1050.000000
30
0.000000
0
VERTEX
8
0
10
202.000000
20
1048.000000
30
0.000000
0
VERTEX
8
0
10
208.000000
20
1048.000000
30
0.000000
0
VERTEX
8
0
10
208.000000
20
1022.000000
30
0.000000
0
VERTEX
8
0
10
202.000000
20
1022.000000
30
0.000000
0
VERTEX
8
0
10
200.000000
20
1020.000000
30
0.000000
0
VERTEX
8
0
10
200.000000
20
999.000000
30
0.000000
0
VERTEX
8
0
10
208.000000
20
998.000000
30
0.000000
0
VERTEX
8
0
10
208.000000
20
972.000000
30
0.000000
0
VERTEX
8
0
10
200.000000
20
970.000000
30
0.000000
0
VERTEX
8
0
10
200.000000
20
949.000000
30
0.000000
0
VERTEX
8
0
10
202.000000
20
947.000000
30
0.000000
0
VERTEX
8
0
10
208.000000
20
947.000000
30
0.000000
0
VERTEX
8
0
10
208.000000
20
921.000000
30
0.000000
0
VERTEX
8
0
10
202.000000
20
921.000000
30
0.000000
0
VERTEX
8
0
10
200.000000
20
919.000000
30
0.000000
0
VERTEX
8
0
10
200.000000
20
899.000000
30
0.000000
0
VERTEX
8
0
10
202.000000
20
897.000000
30
0.000000
0
VERTEX
8
0
10
208.000000
20
897.000000
30
0.000000
0
VERTEX
8
0
10
208.000000
20
871.000000
30
0.000000
0
VERTEX
8
0
10
202.000000
20
871.000000
30
0.000000
0
VERTEX
8
0
10
200.000000
20
869.000000
30
0.000000
0
VERTEX
8
0
10
200.000000
20
848.000000
30
0.000000
0
VERTEX
8
0
10
203.000000
20
846.000000
30
0.000000
0
VERTEX
8
0
10
208.000000
20
846.000000
30
0.000000
0
VERTEX
8
0
10
208.000000
20
821.000000
30
0.000000
0
VERTEX
8
0
10
200.000000
20
819.000000
30
0.000000
0
VERTEX
8
0
10
200.000000
20
798.000000
30
0.000000
0
VERTEX
8
0
10
208.000000
20
796.000000
30
0.000000
0
VERTEX
8
0
10
208.000000
20
770.000000
30
0.000000
0
VERTEX
8
0
10
202.000000
20
770.000000
30
0.000000
0
VERTEX
8
0
10
200.000000
20
768.000000
30
0.000000
0
VERTEX
8
0
10
200.000000
20
747.000000
30
0.000000
0
VERTEX
8
0
10
208.000000
20
746.000000
30
0.000000
0
VERTEX
8
0
10
208.000000
20
720.000000
30
0.000000
0
VERTEX
8
0
10
200.000000
20
718.000000
30
0.000000
0
VERTEX
8
0
10
200.000000
20
697.000000
30
0.000000
0
VERTEX
8
0
10
202.000000
20
695.000000
30
0.000000
0
VERTEX
8
0
10
208.000000
20
695.000000
30
0.000000
0
VERTEX
8
0
10
208.000000
20
669.000000
30
0.000000
0
VERTEX
8
0
10
202.000000
20
669.000000
30
0.000000
0
VERTEX
8
0
10
200.000000
20
667.000000
30
0.000000
0
VERTEX
8
0
10
200.000000
20
647.000000
30
0.000000
0
VERTEX
8
0
10
202.000000
20
645.000000
30
0.000000
0
VERTEX
8
0
10
208.000000
20
645.000000
30
0.000000
0
VERTEX
8
0
10
208.000000
20
619.000000
30
0.000000
0
VERTEX
8
0
10
200.000000
20
618.000000
30
0.000000
0
VERTEX
8
0
10
200.000000
20
597.000000
30
0.000000
0
VERTEX
8
0
10
202.000000
20
595.000000
30
0.000000
0
VERTEX
8
0
10
208.000000
20
594.000000
30
0.000000
0
VERTEX
8
0
10
209.000000
20
570.000000
30
0.000000
0
VERTEX
8
0
10
232.000000
20
570.000000
30
0.000000
0
VERTEX
8
0
10
234.000000
20
572.000000
30
0.000000
0
VERTEX
8
0
10
234.000000
20
577.000000
30
0.000000
0
VERTEX
8
0
10
258.000000
20
577.000000
30
0.000000
0
VERTEX
8
0
10
260.000000
20
570.000000
30
0.000000
0
VERTEX
8
0
10
284.000000
20
570.000000
30
0.000000
0
VERTEX
8
0
10
286.000000
20
577.000000
30
0.000000
0
VERTEX
8
0
10
310.000000
20
577.000000
30
0.000000
0
VERTEX
8
0
10
311.000000
20
570.000000
30
0.000000
0
VERTEX
8
0
10
335.000000
20
570.000000
30
0.000000
0
VERTEX
8
0
10
337.000000
20
572.000000
30
0.000000
0
VERTEX
8
0
10
337.000000
20
577.000000
30
0.000000
0
VERTEX
8
0
10
361.000000
20
577.000000
30
0.000000
0
VERTEX
8
0
10
363.000000
20
570.000000
30
0.000000
0
VERTEX
8
0
10
387.000000
20
570.000000
30
0.000000
0
VERTEX
8
0
10
388.000000
20
577.000000
30
0.000000
0
VERTEX
8
0
10
412.000000
20
577.000000
30
0.000000
0
VERTEX
8
0
10
414.000000
20
570.000000
30
0.000000
0
VERTEX
8
0
10
438.000000
20
570.000000
30
0.000000
0
VERTEX
8
0
10
440.000000
20
577.000000
30
0.000000
0
VERTEX
8
0
10
464.000000
20
577.000000
30
0.000000
0
VERTEX
8
0
10
465.000000
20
570.000000
30
0.000000
0
VERTEX
8
0
10
490.000000
20
570.000000
30
0.000000
0
VERTEX
8
0
10
491.000000
20
577.000000
30
0.000000
0
VERTEX
8
0
10
515.000000
20
577.000000
30
0.000000
0
VERTEX
8
0
10
517.000000
20
570.000000
30
0.000000
0
VERTEX
8
0
10
541.000000
20
570.000000
30
0.000000
0
VERTEX
8
0
10
542.000000
20
577.000000
30
0.000000
0
VERTEX
8
0
10
567.000000
20
577.000000
30
0.000000
0
VERTEX
8
0
10
568.000000
20
570.000000
30
0.000000
0
VERTEX
8
0
10
592.000000
20
570.000000
30
0.000000
0
VERTEX
8
0
10
594.000000
20
577.000000
30
0.000000
0
VERTEX
8
0
10
618.000000
20
577.000000
30
0.000000
0
VERTEX
8
0
10
619.000000
20
570.000000
30
0.000000
0
VERTEX
8
0
10
644.000000
20
570.000000
30
0.000000
0
VERTEX
8
0
10
645.000000
20
577.000000
30
0.000000
0
VERTEX
8
0
10
669.000000
20
577.000000
30
0.000000
0
VERTEX
8
0
10
671.000000
20
570.000000
30
0.000000
0
VERTEX
8
0
10
694.000000
20
570.000000
30
0.000000
0
VERTEX
8
0
10
695.000000
20
594.000000
30
0.000000
0
VERTEX
8
0
10
703.000000
20
596.000000
30
0.000000
0
VERTEX
8
0
10
703.000000
20
618.000000
30
0.000000
0
VERTEX
8
0
10
695.000000
20
619.000000
30
0.000000
0
VERTEX
8
0
10
695.000000
20
644.000000
30
0.000000
0
VERTEX
8
0
10
703.000000
20
646.000000
30
0.000000
0
VERTEX
8
0
10
703.000000
20
667.000000
30
0.000000
0
VERTEX
8
0
10
701.000000
20
669.000000
30
0.000000
0
VERTEX
8
0
10
695.000000
20
670.000000
30
0.000000
0
VERTEX
8
0
10
695.000000
20
695.000000
30
0.000000
0
VERTEX
8
0
10
701.000000
20
695.000000
30
0.000000
0
VERTEX
8
0
10
703.000000
20
697.000000
30
0.000000
0
VERTEX
8
0
10
703.000000
20
718.000000
30
0.000000
0
VERTEX
8
0
10
695.000000
20
720.000000
30
0.000000
0
VERTEX
8
0
10
695.000000
20
745.000000
30
0.000000
0
VERTEX
8
0
10
703.000000
20
747.000000
30
0.000000
0
VERTEX
8
0
10
703.000000
20
768.000000
30
0.000000
0
VERTEX
8
0
10
701.000000
20
770.000000
30
0.000000
0
VERTEX
8
0
10
695.000000
20
771.000000
30
0.000000
0
VERTEX
8
0
10
695.000000
20
796.000000
30
0.000000
0
VERTEX
8
0
10
703.000000
20
798.000000
30
0.000000
0
VERTEX
8
0
10
703.000000
20
819.000000
30
0.000000
0
VERTEX
8
0
10
695.000000
20
821.000000
30
0.000000
0
VERTEX
8
0
10
695.000000
20
846.000000
30
0.000000
0
VERTEX
8
0
10
701.000000
20
846.000000
30
0.000000
0
VERTEX
8
0
10
703.000000
20
848.000000
30
0.000000
0
VERTEX
8
0
10
703.000000
20
870.000000
30
0.000000
0
VERTEX
8
0
10
695.000000
20
871.000000
30
0.000000
0
VERTEX
8
0
10
695.000000
20
896.000000
30
0.000000
0
VERTEX
8
0
10
703.000000
20
898.000000
30
0.000000
0
VERTEX
8
0
10
703.000000
20
919.000000
30
0.000000
0
VERTEX
8
0
10
701.000000
20
921.000000
30
0.000000
0
VERTEX
8
0
10
695.000000
20
922.000000
30
0.000000
0
VERTEX
8
0
10
695.000000
20
947.000000
30
0.000000
0
VERTEX
8
0
10
701.000000
20
947.000000
30
0.000000
0
VERTEX
8
0
10
703.000000
20
949.000000
30
0.000000
0
VERTEX
8
0
10
703.000000
20
970.000000
30
0.000000
0
VERTEX
8
0
10
695.000000
20
972.000000
30
0.000000
0
VERTEX
8
0
10
695.000000
20
997.000000
30
0.000000
0
VERTEX
8
0
10
703.000000
20
999.000000
30
0.000000
0
VERTEX
8
0
10
703.000000
20
1020.000000
30
0.000000
0
VERTEX
8
0
10
701.000000
20
1022.000000
30
0.000000
0
VERTEX
8
0
10
695.000000
20
1023.000000
30
0.000000
0
VERTEX
8
0
10
695.000000
20
1048.000000
30
0.000000
0
VERTEX
8
0
10
701.000000
20
1048.000000
30
0.000000
0
VERTEX
8
0
10
703.000000
20
1050.000000
30
0.000000
0
VERTEX
8
0
10
703.000000
20
1071.000000
30
0.000000
0
VERTEX
8
0
10
695.000000
20
1073.000000
30
0.000000
0
VERTEX
8
0
10
695.000000
20
1098.000000
30
0.000000
0
VERTEX
8
0
10
703.000000
20
1100.000000
30
0.000000
0
VERTEX
8
0
10
703.000000
20
1121.000000
30
0.000000
0
VERTEX
8
0
10
701.000000
20
1123.000000
30
0.000000
0
VERTEX
8
0
10
695.000000
20
1123.000000
30
0.000000
0
VERTEX
8
0
10
695.000000
20
1146.000000
30
0.000000
0
VERTEX
8
0
10
693.000000
20
1148.000000
30
0.000000
0
VERTEX
8
0
10
671.000000
20
1148.000000
30
0.000000
0
VERTEX
8
0
10
670.000000
20
1141.000000
30
0.000000
0
VERTEX
8
0
10
645.000000
20
1140.000000
30
0.000000
0
VERTEX
8
0
10
645.000000
20
1146.000000
30
0.000000
0
VERTEX
8
0
10
643.000000
20
1148.000000
30
0.000000
0
VERTEX
8
0
10
620.000000
20
1148.000000
30
0.000000
0
VERTEX
8
0
10
618.000000
20
1146.000000
30
0.000000
0
VERTEX
8
0
10
617.000000
20
1140.000000
30
0.000000
0
VERTEX
8
0
10
594.000000
20
1140.000000
30
0.000000
0
VERTEX
8
0
10
593.000000
20
1146.000000
30
0.000000
0
VERTEX
8
0
10
591.000000
20
1148.000000
30
0.000000
0
VERTEX
8
0
10
568.000000
20
1148.000000
30
0.000000
0
VERTEX
8
0
10
566.000000
20
1140.000000
30
0.000000
0
VERTEX
8
0
10
543.000000
20
1140.000000
30
0.000000
0
VERTEX
8
0
10
542.000000
20
1146.000000
30
0.000000
0
VERTEX
8
0
10
540.000000
20
1148.000000
30
0.000000
0
VERTEX
8
0
10
517.000000
20
1148.000000
30
0.000000
0
VERTEX
8
0
10
515.000000
20
1140.000000
30
0.000000
0
VERTEX
8
0
10
491.000000
20
1140.000000
30
0.000000
0
VERTEX
8
0
10
491.000000
20
1146.000000
30
0.000000
0
VERTEX
8
0
10
489.000000
20
1148.000000
30
0.000000
0
VERTEX
8
0
10
466.000000
20
1148.000000
30
0.000000
0
VERTEX
8
0
10
464.000000
20
1146.000000
30
0.000000
0
VERTEX
8
0
10
463.000000
20
1140.000000
30
0.000000
0
VERTEX
8
0
10
440.000000
20
1140.000000
30
0.000000
0
VERTEX
8
0
10
439.000000
20
1146.000000
30
0.000000
0
VERTEX
8
0
10
437.000000
20
1148.000000
30
0.000000
0
VERTEX
8
0
10
415.000000
20
1148.000000
30
0.000000
0
VERTEX
8
0
10
413.000000
20
1146.000000
30
0.000000
0
VERTEX
8
0
10
412.000000
20
1140.000000
30
0.000000
0
VERTEX
8
0
10
389.000000
20
1140.000000
30
0.000000
0
VERTEX
8
0
10
388.000000
20
1146.000000
30
0.000000
0
VERTEX
8
0
10
385.000000
20
1148.000000
30
0.000000
0
VERTEX
8
0
10
363.000000
20
1148.000000
30
0.000000
0
VERTEX
8
0
10
361.000000
20
1140.000000
30
0.000000
0
VERTEX
8
0
10
337.000000
20
1140.000000
30
0.000000
0
VERTEX
8
0
10
337.000000
20
1145.000000
30
0.000000
0
VERTEX
8
0
10
335.000000
20
1148.000000
30
0.000000
0
VERTEX
8
0
10
312.000000
20
1148.000000
30
0.000000
0
VERTEX
8
0
10
310.000000
20
1146.000000
30
0.000000
0
VERTEX
8
0
10
309.000000
20
1140.000000
30
0.000000
0
VERTEX
8
0
10
286.000000
20
1140.000000
30
0.000000
0
VERTEX
8
0
10
285.000000
20
1146.000000
30
0.000000
0
VERTEX
8
0
10
283.000000
20
1148.000000
30
0.000000
0
VERTEX
8
0
10
261.000000
20
1148.000000
30
0.000000
0
VERTEX
8
0
10
259.000000
20
1146.000000
30
0.000000
0
VERTEX
8
0
10
258.000000
20
1140.000000
30
0.000000
0
VERTEX
8
0
10
235.000000
20
1140.000000
30
0.000000
0
VERTEX
8
0
10
233.000000
20
1147.000000
30
0.000000
0
SEQEND
0
POLYLINE
8
0
6
CONTINUOUS
66
1
10
0.0
20
0.0
30
0.000000
0
VERTEX
8
0
10
763.000000
20
1147.000000
30
0.000000
0
VERTEX
8
0
10
762.000000
20
1148.000000
30
0.000000
0
VERTEX
8
0
10
718.000000
20
1148.000000
30
0.000000
0
VERTEX
8
0
10
715.000000
20
1146.000000
30
0.000000
0
VERTEX
8
0
10
716.000000
20
1124.000000
30
0.000000
0
VERTEX
8
0
10
723.000000
20
1123.000000
30
0.000000
0
VERTEX
8
0
10
723.000000
20
1098.000000
30
0.000000
0
VERTEX
8
0
10
716.000000
20
1097.000000
30
0.000000
0
VERTEX
8
0
10
716.000000
20
1074.000000
30
0.000000
0
VERTEX
8
0
10
723.000000
20
1073.000000
30
0.000000
0
VERTEX
8
0
10
723.000000
20
1048.000000
30
0.000000
0
VERTEX
8
0
10
716.000000
20
1047.000000
30
0.000000
0
VERTEX
8
0
10
716.000000
20
1023.000000
30
0.000000
0
VERTEX
8
0
10
723.000000
20
1022.000000
30
0.000000
0
VERTEX
8
0
10
723.000000
20
997.000000
30
0.000000
0
VERTEX
8
0
10
717.000000
20
997.000000
30
0.000000
0
VERTEX
8
0
10
715.000000
20
993.000000
30
0.000000
0
VERTEX
8
0
10
715.000000
20
974.000000
30
0.000000
0
VERTEX
8
0
10
717.000000
20
972.000000
30
0.000000
0
VERTEX
8
0
10
723.000000
20
972.000000
30
0.000000
0
VERTEX
8
0
10
723.000000
20
947.000000
30
0.000000
0
VERTEX
8
0
10
716.000000
20
946.000000
30
0.000000
0
VERTEX
8
0
10
716.000000
20
923.000000
30
0.000000
0
VERTEX
8
0
10
719.000000
20
921.000000
30
0.000000
0
VERTEX
8
0
10
723.000000
20
921.000000
30
0.000000
0
VERTEX
8
0
10
723.000000
20
897.000000
30
0.000000
0
VERTEX
8
0
10
716.000000
20
895.000000
30
0.000000
0
VERTEX
8
0
10
716.000000
20
872.000000
30
0.000000
0
VERTEX
8
0
10
723.000000
20
871.000000
30
0.000000
0
VERTEX
8
0
10
723.000000
20
847.000000
30
0.000000
0
VERTEX
8
0
10
716.000000
20
845.000000
30
0.000000
0
VERTEX
8
0
10
716.000000
20
822.000000
30
0.000000
0
VERTEX
8
0
10
723.000000
20
821.000000
30
0.000000
0
VERTEX
8
0
10
723.000000
20
796.000000
30
0.000000
0
VERTEX
8
0
10
716.000000
20
795.000000
30
0.000000
0
VERTEX
8
0
10
716.000000
20
771.000000
30
0.000000
0
VERTEX
8
0
10
723.000000
20
770.000000
30
0.000000
0
VERTEX
8
0
10
723.000000
20
745.000000
30
0.000000
0
VERTEX
8
0
10
716.000000
20
744.000000
30
0.000000
0
VERTEX
8
0
10
716.000000
20
721.000000
30
0.000000
0
VERTEX
8
0
10
723.000000
20
720.000000
30
0.000000
0
VERTEX
8
0
10
723.000000
20
695.000000
30
0.000000
0
VERTEX
8
0
10
716.000000
20
694.000000
30
0.000000
0
VERTEX
8
0
10
716.000000
20
670.000000
30
0.000000
0
VERTEX
8
0
10
723.000000
20
669.000000
30
0.000000
0
VERTEX
8
0
10
723.000000
20
645.000000
30
0.000000
0
VERTEX
8
0
10
716.000000
20
643.000000
30
0.000000
0
VERTEX
8
0
10
715.000000
20
621.000000
30
0.000000
0
VERTEX
8
0
10
717.000000
20
619.000000
30
0.000000
0
VERTEX
8
0
10
723.000000
20
619.000000
30
0.000000
0
VERTEX
8
0
10
723.000000
20
594.000000
30
0.000000
0
VERTEX
8
0
10
716.000000
20
593.000000
30
0.000000
0
VERTEX
8
0
10
717.000000
20
570.000000
30
0.000000
0
VERTEX
8
0
10
764.000000
20
570.000000
30
0.000000
0
VERTEX
8
0
10
766.000000
20
577.000000
30
0.000000
0
VERTEX
8
0
10
790.000000
20
577.000000
30
0.000000
0
VERTEX
8
0
10
792.000000
20
570.000000
30
0.000000
0
VERTEX
8
0
10
840.000000
20
571.000000
30
0.000000
0
VERTEX
8
0
10
840.000000
20
895.000000
30
0.000000
0
VERTEX
8
0
10
834.000000
20
896.000000
30
0.000000
0
VERTEX
8
0
10
832.000000
20
898.000000
30
0.000000
0
VERTEX
8
0
10
832.000000
20
919.000000
30
0.000000
0
VERTEX
8
0
10
834.000000
20
922.000000
30
0.000000
0
VERTEX
8
0
10
837.000000
20
921.000000
30
0.000000
0
VERTEX
8
0
10
840.000000
20
923.000000
30
0.000000
0
VERTEX
8
0
10
840.000000
20
946.000000
30
0.000000
0
VERTEX
8
0
10
832.000000
20
948.000000
30
0.000000
0
VERTEX
8
0
10
832.000000
20
970.000000
30
0.000000
0
VERTEX
8
0
10
833.000000
20
972.000000
30
0.000000
0
VERTEX
8
0
10
840.000000
20
973.000000
30
0.000000
0
VERTEX
8
0
10
840.000000
20
996.000000
30
0.000000
0
VERTEX
8
0
10
833.000000
20
997.000000
30
0.000000
0
VERTEX
8
0
10
832.000000
20
1021.000000
30
0.000000
0
VERTEX
8
0
10
840.000000
20
1023.000000
30
0.000000
0
VERTEX
8
0
10
840.000000
20
1047.000000
30
0.000000
0
VERTEX
8
0
10
833.000000
20
1048.000000
30
0.000000
0
VERTEX
8
0
10
832.000000
20
1071.000000
30
0.000000
0
VERTEX
8
0
10
833.000000
20
1073.000000
30
0.000000
0
VERTEX
8
0
10
840.000000
20
1074.000000
30
0.000000
0
VERTEX
8
0
10
840.000000
20
1097.000000
30
0.000000
0
VERTEX
8
0
10
833.000000
20
1098.000000
30
0.000000
0
VERTEX
8
0
10
832.000000
20
1122.000000
30
0.000000
0
VERTEX
8
0
10
840.000000
20
1124.000000
30
0.000000
0
VERTEX
8
0
10
840.000000
20
1146.000000
30
0.000000
0
VERTEX
8
0
10
837.000000
20
1148.000000
30
0.000000
0
VERTEX
8
0
10
794.000000
20
1148.000000
30
0.000000
0
VERTEX
8
0
10
791.000000
20
1146.000000
30
0.000000
0
VERTEX
8
0
10
790.000000
20
1140.000000
30
0.000000
0
VERTEX
8
0
10
766.000000
20
1140.000000
30
0.000000
0
VERTEX
8
0
10
765.000000
20
1146.000000
30
0.000000
0
VERTEX
8
0
10
763.000000
20
1147.000000
30
0.000000
0
SEQEND
0
POLYLINE
8
0
6
CONTINUOUS
66
1
10
0.0
20
0.0
30
0.000000
0
VERTEX
8
0
10
949.000000
20
1141.000000
30
0.000000
0
VERTEX
8
0
10
950.000000
20
1141.000000
30
0.000000
0
VERTEX
8
0
10
949.000000
20
1141.000000
30
0.000000
0
SEQEND
0
POLYLINE
8
0
6
CONTINUOUS
66
1
10
0.0
20
0.0
30
0.000000
0
VERTEX
8
0
10
956.000000
20
1141.000000
30
0.000000
0
VERTEX
8
0
10
969.000000
20
1141.000000
30
0.000000
0
VERTEX
8
0
10
956.000000
20
1141.000000
30
0.000000
0
SEQEND
0
POLYLINE
8
0
6
CONTINUOUS
66
1
10
0.0
20
0.0
30
0.000000
0
VERTEX
8
0
10
110.000000
20
906.000000
30
0.000000
0
VERTEX
8
0
10
135.000000
20
906.000000
30
0.000000
0
VERTEX
8
0
10
135.000000
20
898.000000
30
0.000000
0
VERTEX
8
0
10
109.000000
20
898.000000
30
0.000000
0
VERTEX
8
0
10
110.000000
20
906.000000
30
0.000000
0
SEQEND
0
POLYLINE
8
0
6
CONTINUOUS
66
1
10
0.0
20
0.0
30
0.000000
0
VERTEX
8
0
10
766.000000
20
906.000000
30
0.000000
0
VERTEX
8
0
10
790.000000
20
906.000000
30
0.000000
0
VERTEX
8
0
10
791.000000
20
898.000000
30
0.000000
0
VERTEX
8
0
10
765.000000
20
898.000000
30
0.000000
0
VERTEX
8
0
10
766.000000
20
906.000000
30
0.000000
0
SEQEND
0
POLYLINE
8
0
6
CONTINUOUS
66
1
10
0.0
20
0.0
30
0.000000
0
VERTEX
8
0
10
789.000000
20
904.000000
30
0.000000
0
VERTEX
8
0
10
788.000000
20
905.000000
30
0.000000
0
VERTEX
8
0
10
767.000000
20
905.000000
30
0.000000
0
VERTEX
8
0
10
767.000000
20
899.000000
30
0.000000
0
VERTEX
8
0
10
789.000000
20
899.000000
30
0.000000
0
VERTEX
8
0
10
789.000000
20
904.000000
30
0.000000
0
SEQEND
0
POLYLINE
8
0
6
CONTINUOUS
66
1
10
0.0
20
0.0
30
0.000000
0
VERTEX
8
0
10
911.000000
20
803.000000
30
0.000000
0
VERTEX
8
0
10
935.000000
20
803.000000
30
0.000000
0
VERTEX
8
0
10
936.000000
20
797.000000
30
0.000000
0
VERTEX
8
0
10
938.000000
20
795.000000
30
0.000000
0
VERTEX
8
0
10
979.000000
20
795.000000
30
0.000000
0
VERTEX
8
0
10
979.000000
20
474.000000
30
0.000000
0
VERTEX
8
0
10
938.000000
20
473.000000
30
0.000000
0
VERTEX
8
0
10
936.000000
20
471.000000
30
0.000000
0
VERTEX
8
0
10
936.000000
20
466.000000
30
0.000000
0
VERTEX
8
0
10
912.000000
20
465.000000
30
0.000000
0
VERTEX
8
0
10
910.000000
20
466.000000
30
0.000000
0
VERTEX
8
0
10
909.000000
20
473.000000
30
0.000000
0
VERTEX
8
0
10
860.000000
20
473.000000
30
0.000000
0
VERTEX
8
0
10
859.000000
20
794.000000
30
0.000000
0
VERTEX
8
0
10
909.000000
20
795.000000
30
0.000000
0
VERTEX
8
0
10
911.000000
20
803.000000
30
0.000000
0
SEQEND
0
POLYLINE
8
0
6
CONTINUOUS
66
1
10
0.0
20
0.0
30
0.000000
0
VERTEX
8
0
10
934.000000
20
801.000000
30
0.000000
0
VERTEX
8
0
10
933.000000
20
802.000000
30
0.000000
0
VERTEX
8
0
10
912.000000
20
802.000000
30
0.000000
0
VERTEX
8
0
10
910.000000
20
794.000000
30
0.000000
0
VERTEX
8
0
10
860.000000
20
793.000000
30
0.000000
0
VERTEX
8
0
10
860.000000
20
475.000000
30
0.000000
0
VERTEX
8
0
10
910.000000
20
474.000000
30
0.000000
0
VERTEX
8
0
10
912.000000
20
467.000000
30
0.000000
0
VERTEX
8
0
10
934.000000
20
467.000000
30
0.000000
0
VERTEX
8
0
10
936.000000
20
469.000000
30
0.000000
0
VERTEX
8
0
10
936.000000
20
474.000000
30
0.000000
0
VERTEX
8
0
10
978.000000
20
475.000000
30
0.000000
0
VERTEX
8
0
10
978.000000
20
793.000000
30
0.000000
0
VERTEX
8
0
10
936.000000
20
794.000000
30
0.000000
0
VERTEX
8
0
10
936.000000
20
799.000000
30
0.000000
0
VERTEX
8
0
10
934.000000
20
801.000000
30
0.000000
0
SEQEND
0
POLYLINE
8
0
6
CONTINUOUS
66
1
10
0.0
20
0.0
30
0.000000
0
VERTEX
8
0
10
118.000000
20
554.000000
30
0.000000
0
VERTEX
8
0
10
144.000000
20
554.000000
30
0.000000
0
VERTEX
8
0
10
145.000000
20
546.000000
30
0.000000
0
VERTEX
8
0
10
187.000000
20
546.000000
30
0.000000
0
VERTEX
8
0
10
187.000000
20
522.000000
30
0.000000
0
VERTEX
8
0
10
189.000000
20
520.000000
30
0.000000
0
VERTEX
8
0
10
195.000000
20
519.000000
30
0.000000
0
VERTEX
8
0
10
195.000000
20
494.000000
30
0.000000
0
VERTEX
8
0
10
187.000000
20
492.000000
30
0.000000
0
VERTEX
8
0
10
187.000000
20
469.000000
30
0.000000
0
VERTEX
8
0
10
195.000000
20
468.000000
30
0.000000
0
VERTEX
8
0
10
195.000000
20
442.000000
30
0.000000
0
VERTEX
8
0
10
187.000000
20
441.000000
30
0.000000
0
VERTEX
8
0
10
187.000000
20
418.000000
30
0.000000
0
VERTEX
8
0
10
195.000000
20
417.000000
30
0.000000
0
VERTEX
8
0
10
195.000000
20
391.000000
30
0.000000
0
VERTEX
8
0
10
187.000000
20
390.000000
30
0.000000
0
VERTEX
8
0
10
187.000000
20
367.000000
30
0.000000
0
VERTEX
8
0
10
195.000000
20
365.000000
30
0.000000
0
VERTEX
8
0
10
195.000000
20
340.000000
30
0.000000
0
VERTEX
8
0
10
187.000000
20
338.000000
30
0.000000
0
VERTEX
8
0
10
187.000000
20
315.000000
30
0.000000
0
VERTEX
8
0
10
195.000000
20
314.000000
30
0.000000
0
VERTEX
8
0
10
195.000000
20
288.000000
30
0.000000
0
VERTEX
8
0
10
189.000000
20
288.000000
30
0.000000
0
VERTEX
8
0
10
187.000000
20
286.000000
30
0.000000
0
VERTEX
8
0
10
187.000000
20
264.000000
30
0.000000
0
VERTEX
8
0
10
195.000000
20
263.000000
30
0.000000
0
VERTEX
8
0
10
195.000000
20
237.000000
30
0.000000
0
VERTEX
8
0
10
189.000000
20
237.000000
30
0.000000
0
VERTEX
8
0
10
187.000000
20
235.000000
30
0.000000
0
VERTEX
8
0
10
187.000000
20
213.000000
30
0.000000
0
VERTEX
8
0
10
195.000000
20
211.000000
30
0.000000
0
VERTEX
8
0
10
195.000000
20
185.000000
30
0.000000
0
VERTEX
8
0
10
189.000000
20
185.000000
30
0.000000
0
VERTEX
8
0
10
187.000000
20
183.000000
30
0.000000
0
VERTEX
8
0
10
187.000000
20
161.000000
30
0.000000
0
VERTEX
8
0
10
195.000000
20
160.000000
30
0.000000
0
VERTEX
8
0
10
195.000000
20
134.000000
30
0.000000
0
VERTEX
8
0
10
187.000000
20
132.000000
30
0.000000
0
VERTEX
8
0
10
187.000000
20
110.000000
30
0.000000
0
VERTEX
8
0
10
195.000000
20
108.000000
30
0.000000
0
VERTEX
8
0
10
195.000000
20
83.000000
30
0.000000
0
VERTEX
8
0
10
187.000000
20
81.000000
30
0.000000
0
VERTEX
8
0
10
187.000000
20
56.000000
30
0.000000
0
VERTEX
8
0
10
146.000000
20
56.000000
30
0.000000
0
VERTEX
8
0
10
144.000000
20
54.000000
30
0.000000
0
VERTEX
8
0
10
144.000000
20
48.000000
30
0.000000
0
VERTEX
8
0
10
118.000000
20
48.000000
30
0.000000
0
VERTEX
8
0
10
117.000000
20
56.000000
30
0.000000
0
VERTEX
8
0
10
67.000000
20
56.000000
30
0.000000
0
VERTEX
8
0
10
67.000000
20
546.000000
30
0.000000
0
VERTEX
8
0
10
117.000000
20
546.000000
30
0.000000
0
VERTEX
8
0
10
118.000000
20
554.000000
30
0.000000
0
SEQEND
0
POLYLINE
8
0
6
CONTINUOUS
66
1
10
0.0
20
0.0
30
0.000000
0
VERTEX
8
0
10
248.000000
20
554.000000
30
0.000000
0
VERTEX
8
0
10
273.000000
20
554.000000
30
0.000000
0
VERTEX
8
0
10
274.000000
20
546.000000
30
0.000000
0
VERTEX
8
0
10
316.000000
20
546.000000
30
0.000000
0
VERTEX
8
0
10
316.000000
20
57.000000
30
0.000000
0
VERTEX
8
0
10
274.000000
20
56.000000
30
0.000000
0
VERTEX
8
0
10
273.000000
20
49.000000
30
0.000000
0
VERTEX
8
0
10
248.000000
20
49.000000
30
0.000000
0
VERTEX
8
0
10
246.000000
20
56.000000
30
0.000000
0
VERTEX
8
0
10
206.000000
20
56.000000
30
0.000000
0
VERTEX
8
0
10
204.000000
20
58.000000
30
0.000000
0
VERTEX
8
0
10
204.000000
20
545.000000
30
0.000000
0
VERTEX
8
0
10
246.000000
20
546.000000
30
0.000000
0
VERTEX
8
0
10
248.000000
20
554.000000
30
0.000000
0
SEQEND
0
POLYLINE
8
0
6
CONTINUOUS
66
1
10
0.0
20
0.0
30
0.000000
0
VERTEX
8
0
10
341.000000
20
554.000000
30
0.000000
0
VERTEX
8
0
10
368.000000
20
554.000000
30
0.000000
0
VERTEX
8
0
10
370.000000
20
546.000000
30
0.000000
0
VERTEX
8
0
10
390.000000
20
546.000000
30
0.000000
0
VERTEX
8
0
10
392.000000
20
554.000000
30
0.000000
0
VERTEX
8
0
10
420.000000
20
554.000000
30
0.000000
0
VERTEX
8
0
10
421.000000
20
546.000000
30
0.000000
0
VERTEX
8
0
10
441.000000
20
546.000000
30
0.000000
0
VERTEX
8
0
10
443.000000
20
554.000000
30
0.000000
0
VERTEX
8
0
10
471.000000
20
554.000000
30
0.000000
0
VERTEX
8
0
10
473.000000
20
546.000000
30
0.000000
0
VERTEX
8
0
10
493.000000
20
546.000000
30
0.000000
0
VERTEX
8
0
10
494.000000
20
554.000000
30
0.000000
0
VERTEX
8
0
10
676.000000
20
554.000000
30
0.000000
0
VERTEX
8
0
10
678.000000
20
546.000000
30
0.000000
0
VERTEX
8
0
10
698.000000
20
546.000000
30
0.000000
0
VERTEX
8
0
10
700.000000
20
554.000000
30
0.000000
0
VERTEX
8
0
10
727.000000
20
554.000000
30
0.000000
0
VERTEX
8
0
10
729.000000
20
546.000000
30
0.000000
0
VERTEX
8
0
10
750.000000
20
546.000000
30
0.000000
0
VERTEX
8
0
10
751.000000
20
554.000000
30
0.000000
0
VERTEX
8
0
10
779.000000
20
554.000000
30
0.000000
0
VERTEX
8
0
10
781.000000
20
546.000000
30
0.000000
0
VERTEX
8
0
10
801.000000
20
546.000000
30
0.000000
0
VERTEX
8
0
10
802.000000
20
554.000000
30
0.000000
0
VERTEX
8
0
10
830.000000
20
554.000000
30
0.000000
0
VERTEX
8
0
10
830.000000
20
530.000000
30
0.000000
0
VERTEX
8
0
10
838.000000
20
528.000000
30
0.000000
0
VERTEX
8
0
10
838.000000
20
502.000000
30
0.000000
0
VERTEX
8
0
10
830.000000
20
501.000000
30
0.000000
0
VERTEX
8
0
10
830.000000
20
480.000000
30
0.000000
0
VERTEX
8
0
10
832.000000
20
478.000000
30
0.000000
0
VERTEX
8
0
10
838.000000
20
478.000000
30
0.000000
0
VERTEX
8
0
10
838.000000
20
452.000000
30
0.000000
0
VERTEX
8
0
10
830.000000
20
450.000000
30
0.000000
0
VERTEX
8
0
10
830.000000
20
429.000000
30
0.000000
0
VERTEX
8
0
10
838.000000
20
428.000000
30
0.000000
0
VERTEX
8
0
10
838.000000
20
402.000000
30
0.000000
0
VERTEX
8
0
10
832.000000
20
402.000000
30
0.000000
0
VERTEX
8
0
10
830.000000
20
400.000000
30
0.000000
0
VERTEX
8
0
10
830.000000
20
379.000000
30
0.000000
0
VERTEX
8
0
10
832.000000
20
377.000000
30
0.000000
0
VERTEX
8
0
10
838.000000
20
377.000000
30
0.000000
0
VERTEX
8
0
10
838.000000
20
351.000000
30
0.000000
0
VERTEX
8
0
10
832.000000
20
351.000000
30
0.000000
0
VERTEX
8
0
10
830.000000
20
349.000000
30
0.000000
0
VERTEX
8
0
10
830.000000
20
329.000000
30
0.000000
0
VERTEX
8
0
10
832.000000
20
327.000000
30
0.000000
0
VERTEX
8
0
10
838.000000
20
327.000000
30
0.000000
0
VERTEX
8
0
10
838.000000
20
301.000000
30
0.000000
0
VERTEX
8
0
10
333.000000
20
301.000000
30
0.000000
0
VERTEX
8
0
10
332.000000
20
325.000000
30
0.000000
0
VERTEX
8
0
10
333.000000
20
327.000000
30
0.000000
0
VERTEX
8
0
10
339.000000
20
327.000000
30
0.000000
0
VERTEX
8
0
10
341.000000
20
329.000000
30
0.000000
0
VERTEX
8
0
10
341.000000
20
349.000000
30
0.000000
0
VERTEX
8
0
10
339.000000
20
351.000000
30
0.000000
0
VERTEX
8
0
10
333.000000
20
351.000000
30
0.000000
0
VERTEX
8
0
10
332.000000
20
376.000000
30
0.000000
0
VERTEX
8
0
10
339.000000
20
377.000000
30
0.000000
0
VERTEX
8
0
10
341.000000
20
380.000000
30
0.000000
0
VERTEX
8
0
10
341.000000
20
400.000000
30
0.000000
0
VERTEX
8
0
10
339.000000
20
402.000000
30
0.000000
0
VERTEX
8
0
10
332.000000
20
402.000000
30
0.000000
0
VERTEX
8
0
10
332.000000
20
426.000000
30
0.000000
0
VERTEX
8
0
10
333.000000
20
428.000000
30
0.000000
0
VERTEX
8
0
10
341.000000
20
429.000000
30
0.000000
0
VERTEX
8
0
10
341.000000
20
450.000000
30
0.000000
0
VERTEX
8
0
10
338.000000
20
452.000000
30
0.000000
0
VERTEX
8
0
10
334.000000
20
451.000000
30
0.000000
0
VERTEX
8
0
10
332.000000
20
453.000000
30
0.000000
0
VERTEX
8
0
10
332.000000
20
477.000000
30
0.000000
0
VERTEX
8
0
10
339.000000
20
478.000000
30
0.000000
0
VERTEX
8
0
10
341.000000
20
480.000000
30
0.000000
0
VERTEX
8
0
10
341.000000
20
501.000000
30
0.000000
0
VERTEX
8
0
10
333.000000
20
502.000000
30
0.000000
0
VERTEX
8
0
10
332.000000
20
527.000000
30
0.000000
0
VERTEX
8
0
10
333.000000
20
529.000000
30
0.000000
0
VERTEX
8
0
10
341.000000
20
530.000000
30
0.000000
0
VERTEX
8
0
10
341.000000
20
554.000000
30
0.000000
0
SEQEND
0
POLYLINE
8
0
6
CONTINUOUS
66
1
10
0.0
20
0.0
30
0.000000
0
VERTEX
8
0
10
367.000000
20
552.000000
30
0.000000
0
VERTEX
8
0
10
366.000000
20
553.000000
30
0.000000
0
VERTEX
8
0
10
344.000000
20
553.000000
30
0.000000
0
VERTEX
8
0
10
342.000000
20
551.000000
30
0.000000
0
VERTEX
8
0
10
342.000000
20
528.000000
30
0.000000
0
VERTEX
8
0
10
334.000000
20
527.000000
30
0.000000
0
VERTEX
8
0
10
334.000000
20
504.000000
30
0.000000
0
VERTEX
8
0
10
342.000000
20
503.000000
30
0.000000
0
VERTEX
8
0
10
342.000000
20
478.000000
30
0.000000
0
VERTEX
8
0
10
334.000000
20
476.000000
30
0.000000
0
VERTEX
8
0
10
334.000000
20
454.000000
30
0.000000
0
VERTEX
8
0
10
342.000000
20
452.000000
30
0.000000
0
VERTEX
8
0
10
342.000000
20
427.000000
30
0.000000
0
VERTEX
8
0
10
334.000000
20
426.000000
30
0.000000
0
VERTEX
8
0
10
334.000000
20
404.000000
30
0.000000
0
VERTEX
8
0
10
342.000000
20
402.000000
30
0.000000
0
VERTEX
8
0
10
342.000000
20
377.000000
30
0.000000
0
VERTEX
8
0
10
334.000000
20
375.000000
30
0.000000
0
VERTEX
8
0
10
334.000000
20
353.000000
30
0.000000
0
VERTEX
8
0
10
342.000000
20
351.000000
30
0.000000
0
VERTEX
8
0
10
342.000000
20
326.000000
30
0.000000
0
VERTEX
8
0
10
334.000000
20
324.000000
30
0.000000
0
VERTEX
8
0
10
335.000000
20
302.000000
30
0.000000
0
VERTEX
8
0
10
837.000000
20
303.000000
30
0.000000
0
VERTEX
8
0
10
837.000000
20
324.000000
30
0.000000
0
VERTEX
8
0
10
828.000000
20
327.000000
30
0.000000
0
VERTEX
8
0
10
828.000000
20
351.000000
30
0.000000
0
VERTEX
8
0
10
835.000000
20
352.000000
30
0.000000
0
VERTEX
8
0
10
837.000000
20
354.000000
30
0.000000
0
VERTEX
8
0
10
837.000000
20
375.000000
30
0.000000
0
VERTEX
8
0
10
829.000000
20
376.000000
30
0.000000
0
VERTEX
8
0
10
828.000000
20
401.000000
30
0.000000
0
VERTEX
8
0
10
830.000000
20
403.000000
30
0.000000
0
VERTEX
8
0
10
837.000000
20
404.000000
30
0.000000
0
VERTEX
8
0
10
837.000000
20
425.000000
30
0.000000
0
VERTEX
8
0
10
835.000000
20
427.000000
30
0.000000
0
VERTEX
8
0
10
828.000000
20
428.000000
30
0.000000
0
VERTEX
8
0
10
828.000000
20
451.000000
30
0.000000
0
VERTEX
8
0
10
829.000000
20
453.000000
30
0.000000
0
VERTEX
8
0
10
835.000000
20
453.000000
30
0.000000
0
VERTEX
8
0
10
837.000000
20
455.000000
30
0.000000
0
VERTEX
8
0
10
837.000000
20
475.000000
30
0.000000
0
VERTEX
8
0
10
835.000000
20
477.000000
30
0.000000
0
VERTEX
8
0
10
829.000000
20
477.000000
30
0.000000
0
VERTEX
8
0
10
828.000000
20
498.000000
30
0.000000
0
VERTEX
8
0
10
829.000000
20
503.000000
30
0.000000
0
VERTEX
8
0
10
835.000000
20
503.000000
30
0.000000
0
VERTEX
8
0
10
837.000000
20
505.000000
30
0.000000
0
VERTEX
8
0
10
837.000000
20
526.000000
30
0.000000
0
VERTEX
8
0
10
835.000000
20
528.000000
30
0.000000
0
VERTEX
8
0
10
828.000000
20
529.000000
30
0.000000
0
VERTEX
8
0
10
829.000000
20
550.000000
30
0.000000
0
VERTEX
8
0
10
827.000000
20
553.000000
30
0.000000
0
VERTEX
8
0
10
805.000000
20
553.000000
30
0.000000
0
VERTEX
8
0
10
803.000000
20
551.000000
30
0.000000
0
VERTEX
8
0
10
803.000000
20
545.000000
30
0.000000
0
VERTEX
8
0
10
779.000000
20
545.000000
30
0.000000
0
VERTEX
8
0
10
778.000000
20
551.000000
30
0.000000
0
VERTEX
8
0
10
776.000000
20
553.000000
30
0.000000
0
VERTEX
8
0
10
753.000000
20
553.000000
30
0.000000
0
VERTEX
8
0
10
751.000000
20
545.000000
30
0.000000
0
VERTEX
8
0
10
727.000000
20
545.000000
30
0.000000
0
VERTEX
8
0
10
727.000000
20
551.000000
30
0.000000
0
VERTEX
8
0
10
725.000000
20
553.000000
30
0.000000
0
VERTEX
8
0
10
702.000000
20
553.000000
30
0.000000
0
VERTEX
8
0
10
700.000000
20
545.000000
30
0.000000
0
VERTEX
8
0
10
676.000000
20
545.000000
30
0.000000
0
VERTEX
8
0
10
676.000000
20
551.000000
30
0.000000
0
VERTEX
8
0
10
674.000000
20
553.000000
30
0.000000
0
VERTEX
8
0
10
497.000000
20
553.000000
30
0.000000
0
VERTEX
8
0
10
495.000000
20
551.000000
30
0.000000
0
VERTEX
8
0
10
495.000000
20
545.000000
30
0.000000
0
VERTEX
8
0
10
471.000000
20
545.000000
30
0.000000
0
VERTEX
8
0
10
469.000000
20
553.000000
30
0.000000
0
VERTEX
8
0
10
446.000000
20
553.000000
30
0.000000
0
VERTEX
8
0
10
444.000000
20
551.000000
30
0.000000
0
VERTEX
8
0
10
443.000000
20
545.000000
30
0.000000
0
VERTEX
8
0
10
419.000000
20
545.000000
30
0.000000
0
VERTEX
8
0
10
419.000000
20
551.000000
30
0.000000
0
VERTEX
8
0
10
417.000000
20
553.000000
30
0.000000
0
VERTEX
8
0
10
394.000000
20
553.000000
30
0.000000
0
VERTEX
8
0
10
392.000000
20
551.000000
30
0.000000
0
VERTEX
8
0
10
392.000000
20
545.000000
30
0.000000
0
VERTEX
8
0
10
368.000000
20
545.000000
30
0.000000
0
VERTEX
8
0
10
367.000000
20
552.000000
30
0.000000
0
SEQEND
0
POLYLINE
8
0
6
CONTINUOUS
66
1
10
0.0
20
0.0
30
0.000000
0
VERTEX
8
0
10
553.000000
20
549.000000
30
0.000000
0
VERTEX
8
0
10
557.000000
20
549.000000
30
0.000000
0
VERTEX
8
0
10
560.000000
20
546.000000
30
0.000000
0
VERTEX
8
0
10
560.000000
20
542.000000
30
0.000000
0
VERTEX
8
0
10
558.000000
20
540.000000
30
0.000000
0
VERTEX
8
0
10
551.000000
20
541.000000
30
0.000000
0
VERTEX
8
0
10
550.000000
20
545.000000
30
0.000000
0
VERTEX
8
0
10
553.000000
20
549.000000
30
0.000000
0
SEQEND
0
POLYLINE
8
0
6
CONTINUOUS
66
1
10
0.0
20
0.0
30
0.000000
0
VERTEX
8
0
10
613.000000
20
549.000000
30
0.000000
0
VERTEX
8
0
10
617.000000
20
549.000000
30
0.000000
0
VERTEX
8
0
10
620.000000
20
546.000000
30
0.000000
0
VERTEX
8
0
10
620.000000
20
542.000000
30
0.000000
0
VERTEX
8
0
10
618.000000
20
540.000000
30
0.000000
0
VERTEX
8
0
10
613.000000
20
540.000000
30
0.000000
0
VERTEX
8
0
10
611.000000
20
542.000000
30
0.000000
0
VERTEX
8
0
10
611.000000
20
547.000000
30
0.000000
0
VERTEX
8
0
10
613.000000
20
549.000000
30
0.000000
0
SEQEND
0
POLYLINE
8
0
6
CONTINUOUS
66
1
10
0.0
20
0.0
30
0.000000
0
VERTEX
8
0
10
143.000000
20
546.000000
30
0.000000
0
VERTEX
8
0
10
143.000000
20
552.000000
30
0.000000
0
VERTEX
8
0
10
120.000000
20
553.000000
30
0.000000
0
VERTEX
8
0
10
119.000000
20
545.000000
30
0.000000
0
VERTEX
8
0
10
68.000000
20
544.000000
30
0.000000
0
VERTEX
8
0
10
68.000000
20
58.000000
30
0.000000
0
VERTEX
8
0
10
119.000000
20
57.000000
30
0.000000
0
VERTEX
8
0
10
120.000000
20
49.000000
30
0.000000
0
VERTEX
8
0
10
141.000000
20
49.000000
30
0.000000
0
VERTEX
8
0
10
143.000000
20
51.000000
30
0.000000
0
VERTEX
8
0
10
143.000000
20
57.000000
30
0.000000
0
VERTEX
8
0
10
183.000000
20
57.000000
30
0.000000
0
VERTEX
8
0
10
185.000000
20
59.000000
30
0.000000
0
VERTEX
8
0
10
185.000000
20
82.000000
30
0.000000
0
VERTEX
8
0
10
187.000000
20
84.000000
30
0.000000
0
VERTEX
8
0
10
192.000000
20
83.000000
30
0.000000
0
VERTEX
8
0
10
194.000000
20
86.000000
30
0.000000
0
VERTEX
8
0
10
193.000000
20
107.000000
30
0.000000
0
VERTEX
8
0
10
185.000000
20
109.000000
30
0.000000
0
VERTEX
8
0
10
185.000000
20
134.000000
30
0.000000
0
VERTEX
8
0
10
192.000000
20
135.000000
30
0.000000
0
VERTEX
8
0
10
194.000000
20
137.000000
30
0.000000
0
VERTEX
8
0
10
194.000000
20
156.000000
30
0.000000
0
VERTEX
8
0
10
192.000000
20
159.000000
30
0.000000
0
VERTEX
8
0
10
185.000000
20
160.000000
30
0.000000
0
VERTEX
8
0
10
185.000000
20
184.000000
30
0.000000
0
VERTEX
8
0
10
187.000000
20
187.000000
30
0.000000
0
VERTEX
8
0
10
192.000000
20
187.000000
30
0.000000
0
VERTEX
8
0
10
194.000000
20
189.000000
30
0.000000
0
VERTEX
8
0
10
194.000000
20
207.000000
30
0.000000
0
VERTEX
8
0
10
192.000000
20
210.000000
30
0.000000
0
VERTEX
8
0
10
186.000000
20
210.000000
30
0.000000
0
VERTEX
8
0
10
185.000000
20
236.000000
30
0.000000
0
VERTEX
8
0
10
187.000000
20
238.000000
30
0.000000
0
VERTEX
8
0
10
194.000000
20
239.000000
30
0.000000
0
VERTEX
8
0
10
194.000000
20
258.000000
30
0.000000
0
VERTEX
8
0
10
192.000000
20
262.000000
30
0.000000
0
VERTEX
8
0
10
185.000000
20
263.000000
30
0.000000
0
VERTEX
8
0
10
185.000000
20
288.000000
30
0.000000
0
VERTEX
8
0
10
192.000000
20
289.000000
30
0.000000
0
VERTEX
8
0
10
194.000000
20
293.000000
30
0.000000
0
VERTEX
8
0
10
194.000000
20
311.000000
30
0.000000
0
VERTEX
8
0
10
192.000000
20
313.000000
30
0.000000
0
VERTEX
8
0
10
185.000000
20
314.000000
30
0.000000
0
VERTEX
8
0
10
185.000000
20
339.000000
30
0.000000
0
VERTEX
8
0
10
187.000000
20
341.000000
30
0.000000
0
VERTEX
8
0
10
194.000000
20
342.000000
30
0.000000
0
VERTEX
8
0
10
194.000000
20
363.000000
30
0.000000
0
VERTEX
8
0
10
187.000000
20
364.000000
30
0.000000
0
VERTEX
8
0
10
185.000000
20
366.000000
30
0.000000
0
VERTEX
8
0
10
185.000000
20
391.000000
30
0.000000
0
VERTEX
8
0
10
192.000000
20
392.000000
30
0.000000
0
VERTEX
8
0
10
194.000000
20
394.000000
30
0.000000
0
VERTEX
8
0
10
194.000000
20
413.000000
30
0.000000
0
VERTEX
8
0
10
192.000000
20
416.000000
30
0.000000
0
VERTEX
8
0
10
185.000000
20
417.000000
30
0.000000
0
VERTEX
8
0
10
185.000000
20
442.000000
30
0.000000
0
VERTEX
8
0
10
192.000000
20
443.000000
30
0.000000
0
VERTEX
8
0
10
194.000000
20
445.000000
30
0.000000
0
VERTEX
8
0
10
194.000000
20
466.000000
30
0.000000
0
VERTEX
8
0
10
185.000000
20
468.000000
30
0.000000
0
VERTEX
8
0
10
185.000000
20
493.000000
30
0.000000
0
VERTEX
8
0
10
186.000000
20
495.000000
30
0.000000
0
VERTEX
8
0
10
192.000000
20
495.000000
30
0.000000
0
VERTEX
8
0
10
194.000000
20
497.000000
30
0.000000
0
VERTEX
8
0
10
194.000000
20
516.000000
30
0.000000
0
VERTEX
8
0
10
192.000000
20
518.000000
30
0.000000
0
VERTEX
8
0
10
187.000000
20
518.000000
30
0.000000
0
VERTEX
8
0
10
185.000000
20
520.000000
30
0.000000
0
VERTEX
8
0
10
184.000000
20
545.000000
30
0.000000
0
VERTEX
8
0
10
143.000000
20
546.000000
30
0.000000
0
SEQEND
0
POLYLINE
8
0
6
CONTINUOUS
66
1
10
0.0
20
0.0
30
0.000000
0
VERTEX
8
0
10
272.000000
20
546.000000
30
0.000000
0
VERTEX
8
0
10
272.000000
20
552.000000
30
0.000000
0
VERTEX
8
0
10
250.000000
20
553.000000
30
0.000000
0
VERTEX
8
0
10
248.000000
20
551.000000
30
0.000000
0
VERTEX
8
0
10
247.000000
20
545.000000
30
0.000000
0
VERTEX
8
0
10
206.000000
20
544.000000
30
0.000000
0
VERTEX
8
0
10
206.000000
20
59.000000
30
0.000000
0
VERTEX
8
0
10
247.000000
20
58.000000
30
0.000000
0
VERTEX
8
0
10
249.000000
20
50.000000
30
0.000000
0
VERTEX
8
0
10
271.000000
20
50.000000
30
0.000000
0
VERTEX
8
0
10
272.000000
20
56.000000
30
0.000000
0
VERTEX
8
0
10
274.000000
20
58.000000
30
0.000000
0
VERTEX
8
0
10
315.000000
20
59.000000
30
0.000000
0
VERTEX
8
0
10
315.000000
20
544.000000
30
0.000000
0
VERTEX
8
0
10
272.000000
20
546.000000
30
0.000000
0
SEQEND
0
POLYLINE
8
0
6
CONTINUOUS
66
1
10
0.0
20
0.0
30
0.000000
0
VERTEX
8
0
10
558.000000
20
546.000000
30
0.000000
0
VERTEX
8
0
10
557.000000
20
548.000000
30
0.000000
0
VERTEX
8
0
10
553.000000
20
548.000000
30
0.000000
0
VERTEX
8
0
10
551.000000
20
544.000000
30
0.000000
0
VERTEX
8
0
10
553.000000
20
541.000000
30
0.000000
0
VERTEX
8
0
10
557.000000
20
541.000000
30
0.000000
0
VERTEX
8
0
10
559.000000
20
543.000000
30
0.000000
0
VERTEX
8
0
10
558.000000
20
546.000000
30
0.000000
0
SEQEND
0
POLYLINE
8
0
6
CONTINUOUS
66
1
10
0.0
20
0.0
30
0.000000
0
VERTEX
8
0
10
566.000000
20
545.000000
30
0.000000
0
VERTEX
8
0
10
604.000000
20
545.000000
30
0.000000
0
VERTEX
8
0
10
608.000000
20
542.000000
30
0.000000
0
VERTEX
8
0
10
608.000000
20
534.000000
30
0.000000
0
VERTEX
8
0
10
610.000000
20
532.000000
30
0.000000
0
VERTEX
8
0
10
631.000000
20
531.000000
30
0.000000
0
VERTEX
8
0
10
631.000000
20
471.000000
30
0.000000
0
VERTEX
8
0
10
629.000000
20
469.000000
30
0.000000
0
VERTEX
8
0
10
540.000000
20
470.000000
30
0.000000
0
VERTEX
8
0
10
540.000000
20
531.000000
30
0.000000
0
VERTEX
8
0
10
561.000000
20
532.000000
30
0.000000
0
VERTEX
8
0
10
562.000000
20
540.000000
30
0.000000
0
VERTEX
8
0
10
566.000000
20
545.000000
30
0.000000
0
SEQEND
0
POLYLINE
8
0
6
CONTINUOUS
66
1
10
0.0
20
0.0
30
0.000000
0
VERTEX
8
0
10
633.000000
20
545.000000
30
0.000000
0
VERTEX
8
0
10
637.000000
20
543.000000
30
0.000000
0
VERTEX
8
0
10
635.000000
20
541.000000
30
0.000000
0
VERTEX
8
0
10
636.000000
20
537.000000
30
0.000000
0
VERTEX
8
0
10
630.000000
20
537.000000
30
0.000000
0
VERTEX
8
0
10
630.000000
20
544.000000
30
0.000000
0
VERTEX
8
0
10
633.000000
20
545.000000
30
0.000000
0
SEQEND
0
POLYLINE
8
0
6
CONTINUOUS
66
1
10
0.0
20
0.0
30
0.000000
0
VERTEX
8
0
10
643.000000
20
545.000000
30
0.000000
0
VERTEX
8
0
10
646.000000
20
543.000000
30
0.000000
0
VERTEX
8
0
10
646.000000
20
539.000000
30
0.000000
0
VERTEX
8
0
10
650.000000
20
544.000000
30
0.000000
0
VERTEX
8
0
10
647.000000
20
537.000000
30
0.000000
0
VERTEX
8
0
10
638.000000
20
537.000000
30
0.000000
0
VERTEX
8
0
10
640.000000
20
543.000000
30
0.000000
0
VERTEX
8
0
10
639.000000
20
544.000000
30
0.000000
0
VERTEX
8
0
10
643.000000
20
545.000000
30
0.000000
0
SEQEND
0
POLYLINE
8
0
6
CONTINUOUS
66
1
10
0.0
20
0.0
30
0.000000
0
VERTEX
8
0
10
652.000000
20
545.000000
30
0.000000
0
VERTEX
8
0
10
657.000000
20
545.000000
30
0.000000
0
VERTEX
8
0
10
658.000000
20
537.000000
30
0.000000
0
VERTEX
8
0
10
651.000000
20
537.000000
30
0.000000
0
VERTEX
8
0
10
652.000000
20
545.000000
30
0.000000
0
SEQEND
0
POLYLINE
8
0
6
CONTINUOUS
66
1
10
0.0
20
0.0
30
0.000000
0
VERTEX
8
0
10
662.000000
20
545.000000
30
0.000000
0
VERTEX
8
0
10
666.000000
20
545.000000
30
0.000000
0
VERTEX
8
0
10
667.000000
20
538.000000
30
0.000000
0
VERTEX
8
0
10
660.000000
20
538.000000
30
0.000000
0
VERTEX
8
0
10
660.000000
20
542.000000
30
0.000000
0
VERTEX
8
0
10
665.000000
20
543.000000
30
0.000000
0
VERTEX
8
0
10
661.000000
20
544.000000
30
0.000000
0
VERTEX
8
0
10
662.000000
20
545.000000
30
0.000000
0
SEQEND
0
POLYLINE
8
0
6
CONTINUOUS
66
1
10
0.0
20
0.0
30
0.000000
0
VERTEX
8
0
10
503.000000
20
544.000000
30
0.000000
0
VERTEX
8
0
10
506.000000
20
544.000000
30
0.000000
0
VERTEX
8
0
10
507.000000
20
545.000000
30
0.000000
0
VERTEX
8
0
10
510.000000
20
542.000000
30
0.000000
0
VERTEX
8
0
10
510.000000
20
537.000000
30
0.000000
0
VERTEX
8
0
10
503.000000
20
537.000000
30
0.000000
0
VERTEX
8
0
10
503.000000
20
544.000000
30
0.000000
0
SEQEND
0
POLYLINE
8
0
6
CONTINUOUS
66
1
10
0.0
20
0.0
30
0.000000
0
VERTEX
8
0
10
515.000000
20
544.000000
30
0.000000
0
VERTEX
8
0
10
519.000000
20
543.000000
30
0.000000
0
VERTEX
8
0
10
519.000000
20
538.000000
30
0.000000
0
VERTEX
8
0
10
523.000000
20
544.000000
30
0.000000
0
VERTEX
8
0
10
531.000000
20
544.000000
30
0.000000
0
VERTEX
8
0
10
532.000000
20
542.000000
30
0.000000
0
VERTEX
8
0
10
530.000000
20
536.000000
30
0.000000
0
VERTEX
8
0
10
527.000000
20
537.000000
30
0.000000
0
VERTEX
8
0
10
526.000000
20
541.000000
30
0.000000
0
VERTEX
8
0
10
525.000000
20
537.000000
30
0.000000
0
VERTEX
8
0
10
525.000000
20
540.000000
30
0.000000
0
VERTEX
8
0
10
523.000000
20
541.000000
30
0.000000
0
VERTEX
8
0
10
521.000000
20
537.000000
30
0.000000
0
VERTEX
8
0
10
512.000000
20
537.000000
30
0.000000
0
VERTEX
8
0
10
512.000000
20
543.000000
30
0.000000
0
VERTEX
8
0
10
515.000000
20
544.000000
30
0.000000
0
SEQEND
0
POLYLINE
8
0
6
CONTINUOUS
66
1
10
0.0
20
0.0
30
0.000000
0
VERTEX
8
0
10
534.000000
20
544.000000
30
0.000000
0
VERTEX
8
0
10
540.000000
20
544.000000
30
0.000000
0
VERTEX
8
0
10
541.000000
20
539.000000
30
0.000000
0
VERTEX
8
0
10
539.000000
20
537.000000
30
0.000000
0
VERTEX
8
0
10
533.000000
20
538.000000
30
0.000000
0
VERTEX
8
0
10
534.000000
20
544.000000
30
0.000000
0
SEQEND
0
POLYLINE
8
0
6
CONTINUOUS
66
1
10
0.0
20
0.0
30
0.000000
0
VERTEX
8
0
10
606.000000
20
542.000000
30
0.000000
0
VERTEX
8
0
10
604.000000
20
544.000000
30
0.000000
0
VERTEX
8
0
10
567.000000
20
544.000000
30
0.000000
0
VERTEX
8
0
10
563.000000
20
540.000000
30
0.000000
0
VERTEX
8
0
10
562.000000
20
531.000000
30
0.000000
0
VERTEX
8
0
10
543.000000
20
532.000000
30
0.000000
0
VERTEX
8
0
10
541.000000
20
530.000000
30
0.000000
0
VERTEX
8
0
10
542.000000
20
471.000000
30
0.000000
0
VERTEX
8
0
10
629.000000
20
472.000000
30
0.000000
0
VERTEX
8
0
10
630.000000
20
529.000000
30
0.000000
0
VERTEX
8
0
10
627.000000
20
532.000000
30
0.000000
0
VERTEX
8
0
10
608.000000
20
532.000000
30
0.000000
0
VERTEX
8
0
10
606.000000
20
542.000000
30
0.000000
0
SEQEND
0
POLYLINE
8
0
6
CONTINUOUS
66
1
10
0.0
20
0.0
30
0.000000
0
VERTEX
8
0
10
618.000000
20
542.000000
30
0.000000
0
VERTEX
8
0
10
619.000000
20
543.000000
30
0.000000
0
VERTEX
8
0
10
619.000000
20
546.000000
30
0.000000
0
VERTEX
8
0
10
617.000000
20
548.000000
30
0.000000
0
VERTEX
8
0
10
614.000000
20
548.000000
30
0.000000
0
VERTEX
8
0
10
612.000000
20
546.000000
30
0.000000
0
VERTEX
8
0
10
613.000000
20
541.000000
30
0.000000
0
VERTEX
8
0
10
618.000000
20
542.000000
30
0.000000
0
SEQEND
0
POLYLINE
8
0
6
CONTINUOUS
66
1
10
0.0
20
0.0
30
0.000000
0
VERTEX
8
0
10
729.000000
20
518.000000
30
0.000000
0
VERTEX
8
0
10
730.000000
20
518.000000
30
0.000000
0
VERTEX
8
0
10
730.000000
20
513.000000
30
0.000000
0
VERTEX
8
0
10
727.000000
20
513.000000
30
0.000000
0
VERTEX
8
0
10
726.000000
20
515.000000
30
0.000000
0
VERTEX
8
0
10
729.000000
20
518.000000
30
0.000000
0
SEQEND
0
POLYLINE
8
0
6
CONTINUOUS
66
1
10
0.0
20
0.0
30
0.000000
0
VERTEX
8
0
10
745.000000
20
518.000000
30
0.000000
0
VERTEX
8
0
10
748.000000
20
518.000000
30
0.000000
0
VERTEX
8
0
10
748.000000
20
512.000000
30
0.000000
0
VERTEX
8
0
10
745.000000
20
512.000000
30
0.000000
0
VERTEX
8
0
10
745.000000
20
518.000000
30
0.000000
0
SEQEND
0
POLYLINE
8
0
6
CONTINUOUS
66
1
10
0.0
20
0.0
30
0.000000
0
VERTEX
8
0
10
524.000000
20
511.000000
30
0.000000
0
VERTEX
8
0
10
532.000000
20
511.000000
30
0.000000
0
VERTEX
8
0
10
534.000000
20
509.000000
30
0.000000
0
VERTEX
8
0
10
535.000000
20
492.000000
30
0.000000
0
VERTEX
8
0
10
532.000000
20
488.000000
30
0.000000
0
VERTEX
8
0
10
524.000000
20
488.000000
30
0.000000
0
VERTEX
8
0
10
522.000000
20
491.000000
30
0.000000
0
VERTEX
8
0
10
522.000000
20
508.000000
30
0.000000
0
VERTEX
8
0
10
524.000000
20
511.000000
30
0.000000
0
SEQEND
0
POLYLINE
8
0
6
CONTINUOUS
66
1
10
0.0
20
0.0
30
0.000000
0
VERTEX
8
0
10
639.000000
20
511.000000
30
0.000000
0
VERTEX
8
0
10
646.000000
20
511.000000
30
0.000000
0
VERTEX
8
0
10
648.000000
20
509.000000
30
0.000000
0
VERTEX
8
0
10
648.000000
20
489.000000
30
0.000000
0
VERTEX
8
0
10
637.000000
20
489.000000
30
0.000000
0
VERTEX
8
0
10
637.000000
20
510.000000
30
0.000000
0
VERTEX
8
0
10
639.000000
20
511.000000
30
0.000000
0
SEQEND
0
POLYLINE
8
0
6
CONTINUOUS
66
1
10
0.0
20
0.0
30
0.000000
0
VERTEX
8
0
10
433.000000
20
510.000000
30
0.000000
0
VERTEX
8
0
10
434.000000
20
511.000000
30
0.000000
0
VERTEX
8
0
10
435.000000
20
507.000000
30
0.000000
0
VERTEX
8
0
10
446.000000
20
504.000000
30
0.000000
0
VERTEX
8
0
10
453.000000
20
499.000000
30
0.000000
0
VERTEX
8
0
10
459.000000
20
488.000000
30
0.000000
0
VERTEX
8
0
10
459.000000
20
474.000000
30
0.000000
0
VERTEX
8
0
10
454.000000
20
465.000000
30
0.000000
0
VERTEX
8
0
10
456.000000
20
461.000000
30
0.000000
0
VERTEX
8
0
10
453.000000
20
463.000000
30
0.000000
0
VERTEX
8
0
10
459.000000
20
476.000000
30
0.000000
0
VERTEX
8
0
10
459.000000
20
486.000000
30
0.000000
0
VERTEX
8
0
10
457.000000
20
488.000000
30
0.000000
0
VERTEX
8
0
10
456.000000
20
493.000000
30
0.000000
0
VERTEX
8
0
10
449.000000
20
501.000000
30
0.000000
0
VERTEX
8
0
10
444.000000
20
504.000000
30
0.000000
0
VERTEX
8
0
10
436.000000
20
506.000000
30
0.000000
0
VERTEX
8
0
10
424.000000
20
504.000000
30
0.000000
0
VERTEX
8
0
10
414.000000
20
496.000000
30
0.000000
0
VERTEX
8
0
10
411.000000
20
491.000000
30
0.000000
0
VERTEX
8
0
10
409.000000
20
480.000000
30
0.000000
0
VERTEX
8
0
10
411.000000
20
471.000000
30
0.000000
0
VERTEX
8
0
10
415.000000
20
465.000000
30
0.000000
0
VERTEX
8
0
10
415.000000
20
463.000000
30
0.000000
0
VERTEX
8
0
10
412.000000
20
461.000000
30
0.000000
0
VERTEX
8
0
10
414.000000
20
465.000000
30
0.000000
0
VERTEX
8
0
10
409.000000
20
474.000000
30
0.000000
0
VERTEX
8
0
10
409.000000
20
488.000000
30
0.000000
0
VERTEX
8
0
10
413.000000
20
496.000000
30
0.000000
0
VERTEX
8
0
10
420.000000
20
503.000000
30
0.000000
0
VERTEX
8
0
10
432.000000
20
507.000000
30
0.000000
0
VERTEX
8
0
10
433.000000
20
510.000000
30
0.000000
0
SEQEND
0
POLYLINE
8
0
6
CONTINUOUS
66
1
10
0.0
20
0.0
30
0.000000
0
VERTEX
8
0
10
713.000000
20
510.000000
30
0.000000
0
VERTEX
8
0
10
716.000000
20
508.000000
30
0.000000
0
VERTEX
8
0
10
714.000000
20
503.000000
30
0.000000
0
VERTEX
8
0
10
712.000000
20
504.000000
30
0.000000
0
VERTEX
8
0
10
713.000000
20
510.000000
30
0.000000
0
SEQEND
0
POLYLINE
8
0
6
CONTINUOUS
66
1
10
0.0
20
0.0
30
0.000000
0
VERTEX
8
0
10
532.000000
20
509.000000
30
0.000000
0
VERTEX
8
0
10
531.000000
20
510.000000
30
0.000000
0
VERTEX
8
0
10
525.000000
20
510.000000
30
0.000000
0
VERTEX
8
0
10
523.000000
20
508.000000
30
0.000000
0
VERTEX
8
0
10
523.000000
20
491.000000
30
0.000000
0
VERTEX
8
0
10
526.000000
20
488.000000
30
0.000000
0
VERTEX
8
0
10
531.000000
20
488.000000
30
0.000000
0
VERTEX
8
0
10
534.000000
20
492.000000
30
0.000000
0
VERTEX
8
0
10
534.000000
20
506.000000
30
0.000000
0
VERTEX
8
0
10
532.000000
20
509.000000
30
0.000000
0
SEQEND
0
POLYLINE
8
0
6
CONTINUOUS
66
1
10
0.0
20
0.0
30
0.000000
0
VERTEX
8
0
10
646.000000
20
509.000000
30
0.000000
0
VERTEX
8
0
10
645.000000
20
510.000000
30
0.000000
0
VERTEX
8
0
10
640.000000
20
510.000000
30
0.000000
0
VERTEX
8
0
10
637.000000
20
505.000000
30
0.000000
0
VERTEX
8
0
10
638.000000
20
490.000000
30
0.000000
0
VERTEX
8
0
10
640.000000
20
488.000000
30
0.000000
0
VERTEX
8
0
10
645.000000
20
488.000000
30
0.000000
0
VERTEX
8
0
10
648.000000
20
491.000000
30
0.000000
0
VERTEX
8
0
10
648.000000
20
508.000000
30
0.000000
0
VERTEX
8
0
10
646.000000
20
509.000000
30
0.000000
0
SEQEND
0
POLYLINE
8
0
6
CONTINUOUS
66
1
10
0.0
20
0.0
30
0.000000
0
VERTEX
8
0
10
729.000000
20
509.000000
30
0.000000
0
VERTEX
8
0
10
730.000000
20
510.000000
30
0.000000
0
VERTEX
8
0
10
732.000000
20
506.000000
30
0.000000
0
VERTEX
8
0
10
743.000000
20
506.000000
30
0.000000
0
VERTEX
8
0
10
745.000000
20
509.000000
30
0.000000
0
VERTEX
8
0
10
746.000000
20
505.000000
30
0.000000
0
VERTEX
8
0
10
755.000000
20
501.000000
30
0.000000
0
VERTEX
8
0
10
758.000000
20
503.000000
30
0.000000
0
VERTEX
8
0
10
760.000000
20
508.000000
30
0.000000
0
VERTEX
8
0
10
762.000000
20
508.000000
30
0.000000
0
VERTEX
8
0
10
764.000000
20
504.000000
30
0.000000
0
VERTEX
8
0
10
762.000000
20
502.000000
30
0.000000
0
VERTEX
8
0
10
760.000000
20
502.000000
30
0.000000
0
VERTEX
8
0
10
759.000000
20
504.000000
30
0.000000
0
VERTEX
8
0
10
755.000000
20
500.000000
30
0.000000
0
VERTEX
8
0
10
762.000000
20
489.000000
30
0.000000
0
VERTEX
8
0
10
766.000000
20
489.000000
30
0.000000
0
VERTEX
8
0
10
762.000000
20
486.000000
30
0.000000
0
VERTEX
8
0
10
762.000000
20
476.000000
30
0.000000
0
VERTEX
8
0
10
766.000000
20
473.000000
30
0.000000
0
VERTEX
8
0
10
763.000000
20
474.000000
30
0.000000
0
VERTEX
8
0
10
757.000000
20
465.000000
30
0.000000
0
VERTEX
8
0
10
759.000000
20
461.000000
30
0.000000
0
VERTEX
8
0
10
756.000000
20
465.000000
30
0.000000
0
VERTEX
8
0
10
760.000000
20
470.000000
30
0.000000
0
VERTEX
8
0
10
762.000000
20
476.000000
30
0.000000
0
VERTEX
8
0
10
762.000000
20
486.000000
30
0.000000
0
VERTEX
8
0
10
758.000000
20
495.000000
30
0.000000
0
VERTEX
8
0
10
752.000000
20
501.000000
30
0.000000
0
VERTEX
8
0
10
745.000000
20
505.000000
30
0.000000
0
VERTEX
8
0
10
730.000000
20
505.000000
30
0.000000
0
VERTEX
8
0
10
720.000000
20
499.000000
30
0.000000
0
VERTEX
8
0
10
713.000000
20
487.000000
30
0.000000
0
VERTEX
8
0
10
713.000000
20
475.000000
30
0.000000
0
VERTEX
8
0
10
719.000000
20
464.000000
30
0.000000
0
VERTEX
8
0
10
714.000000
20
460.000000
30
0.000000
0
VERTEX
8
0
10
714.000000
20
455.000000
30
0.000000
0
VERTEX
8
0
10
711.000000
20
455.000000
30
0.000000
0
VERTEX
8
0
10
711.000000
20
460.000000
30
0.000000
0
VERTEX
8
0
10
715.000000
20
461.000000
30
0.000000
0
VERTEX
8
0
10
717.000000
20
465.000000
30
0.000000
0
VERTEX
8
0
10
712.000000
20
474.000000
30
0.000000
0
VERTEX
8
0
10
708.000000
20
473.000000
30
0.000000
0
VERTEX
8
0
10
712.000000
20
476.000000
30
0.000000
0
VERTEX
8
0
10
712.000000
20
487.000000
30
0.000000
0
VERTEX
8
0
10
709.000000
20
489.000000
30
0.000000
0
VERTEX
8
0
10
712.000000
20
488.000000
30
0.000000
0
VERTEX
8
0
10
720.000000
20
500.000000
30
0.000000
0
VERTEX
8
0
10
717.000000
20
503.000000
30
0.000000
0
VERTEX
8
0
10
721.000000
20
501.000000
30
0.000000
0
VERTEX
8
0
10
728.000000
20
504.000000
30
0.000000
0
VERTEX
8
0
10
730.000000
20
507.000000
30
0.000000
0
VERTEX
8
0
10
729.000000
20
509.000000
30
0.000000
0
SEQEND
0
POLYLINE
8
0
6
CONTINUOUS
66
1
10
0.0
20
0.0
30
0.000000
0
VERTEX
8
0
10
770.000000
20
493.000000
30
0.000000
0
VERTEX
8
0
10
772.000000
20
493.000000
30
0.000000
0
VERTEX
8
0
10
773.000000
20
492.000000
30
0.000000
0
VERTEX
8
0
10
770.000000
20
487.000000
30
0.000000
0
VERTEX
8
0
10
770.000000
20
490.000000
30
0.000000
0
VERTEX
8
0
10
768.000000
20
492.000000
30
0.000000
0
VERTEX
8
0
10
770.000000
20
493.000000
30
0.000000
0
SEQEND
0
POLYLINE
8
0
6
CONTINUOUS
66
1
10
0.0
20
0.0
30
0.000000
0
VERTEX
8
0
10
388.000000
20
492.000000
30
0.000000
0
VERTEX
8
0
10
395.000000
20
492.000000
30
0.000000
0
VERTEX
8
0
10
395.000000
20
484.000000
30
0.000000
0
VERTEX
8
0
10
392.000000
20
483.000000
30
0.000000
0
VERTEX
8
0
10
387.000000
20
485.000000
30
0.000000
0
VERTEX
8
0
10
388.000000
20
492.000000
30
0.000000
0
SEQEND
0
POLYLINE
8
0
6
CONTINUOUS
66
1
10
0.0
20
0.0
30
0.000000
0
VERTEX
8
0
10
399.000000
20
492.000000
30
0.000000
0
VERTEX
8
0
10
404.000000
20
492.000000
30
0.000000
0
VERTEX
8
0
10
406.000000
20
491.000000
30
0.000000
0
VERTEX
8
0
10
404.000000
20
483.000000
30
0.000000
0
VERTEX
8
0
10
398.000000
20
484.000000
30
0.000000
0
VERTEX
8
0
10
397.000000
20
490.000000
30
0.000000
0
VERTEX
8
0
10
399.000000
20
492.000000
30
0.000000
0
SEQEND
0
POLYLINE
8
0
6
CONTINUOUS
66
1
10
0.0
20
0.0
30
0.000000
0
VERTEX
8
0
10
463.000000
20
492.000000
30
0.000000
0
VERTEX
8
0
10
465.000000
20
492.000000
30
0.000000
0
VERTEX
8
0
10
471.000000
20
492.000000
30
0.000000
0
VERTEX
8
0
10
471.000000
20
484.000000
30
0.000000
0
VERTEX
8
0
10
463.000000
20
484.000000
30
0.000000
0
VERTEX
8
0
10
463.000000
20
492.000000
30
0.000000
0
SEQEND
0
POLYLINE
8
0
6
CONTINUOUS
66
1
10
0.0
20
0.0
30
0.000000
0
VERTEX
8
0
10
474.000000
20
492.000000
30
0.000000
0
VERTEX
8
0
10
481.000000
20
492.000000
30
0.000000
0
VERTEX
8
0
10
481.000000
20
484.000000
30
0.000000
0
VERTEX
8
0
10
473.000000
20
485.000000
30
0.000000
0
VERTEX
8
0
10
474.000000
20
492.000000
30
0.000000
0
SEQEND
0
POLYLINE
8
0
6
CONTINUOUS
66
1
10
0.0
20
0.0
30
0.000000
0
VERTEX
8
0
10
702.000000
20
492.000000
30
0.000000
0
VERTEX
8
0
10
705.000000
20
492.000000
30
0.000000
0
VERTEX
8
0
10
705.000000
20
486.000000
30
0.000000
0
VERTEX
8
0
10
701.000000
20
486.000000
30
0.000000
0
VERTEX
8
0
10
703.000000
20
489.000000
30
0.000000
0
VERTEX
8
0
10
701.000000
20
491.000000
30
0.000000
0
VERTEX
8
0
10
702.000000
20
492.000000
30
0.000000
0
SEQEND
0
POLYLINE
8
0
6
CONTINUOUS
66
1
10
0.0
20
0.0
30
0.000000
0
VERTEX
8
0
10
431.000000
20
490.000000
30
0.000000
0
VERTEX
8
0
10
438.000000
20
490.000000
30
0.000000
0
VERTEX
8
0
10
443.000000
20
484.000000
30
0.000000
0
VERTEX
8
0
10
442.000000
20
476.000000
30
0.000000
0
VERTEX
8
0
10
437.000000
20
472.000000
30
0.000000
0
VERTEX
8
0
10
431.000000
20
472.000000
30
0.000000
0
VERTEX
8
0
10
425.000000
20
477.000000
30
0.000000
0
VERTEX
8
0
10
425.000000
20
484.000000
30
0.000000
0
VERTEX
8
0
10
431.000000
20
490.000000
30
0.000000
0
SEQEND
0
POLYLINE
8
0
6
CONTINUOUS
66
1
10
0.0
20
0.0
30
0.000000
0
VERTEX
8
0
10
734.000000
20
490.000000
30
0.000000
0
VERTEX
8
0
10
741.000000
20
490.000000
30
0.000000
0
VERTEX
8
0
10
746.000000
20
485.000000
30
0.000000
0
VERTEX
8
0
10
745.000000
20
475.000000
30
0.000000
0
VERTEX
8
0
10
738.000000
20
471.000000
30
0.000000
0
VERTEX
8
0
10
732.000000
20
473.000000
30
0.000000
0
VERTEX
8
0
10
728.000000
20
478.000000
30
0.000000
0
VERTEX
8
0
10
728.000000
20
484.000000
30
0.000000
0
VERTEX
8
0
10
734.000000
20
490.000000
30
0.000000
0
SEQEND
0
POLYLINE
8
0
6
CONTINUOUS
66
1
10
0.0
20
0.0
30
0.000000
0
VERTEX
8
0
10
438.000000
20
488.000000
30
0.000000
0
VERTEX
8
0
10
437.000000
20
489.000000
30
0.000000
0
VERTEX
8
0
10
431.000000
20
489.000000
30
0.000000
0
VERTEX
8
0
10
426.000000
20
484.000000
30
0.000000
0
VERTEX
8
0
10
427.000000
20
476.000000
30
0.000000
0
VERTEX
8
0
10
433.000000
20
472.000000
30
0.000000
0
VERTEX
8
0
10
439.000000
20
474.000000
30
0.000000
0
VERTEX
8
0
10
442.000000
20
478.000000
30
0.000000
0
VERTEX
8
0
10
442.000000
20
483.000000
30
0.000000
0
VERTEX
8
0
10
438.000000
20
488.000000
30
0.000000
0
SEQEND
0
POLYLINE
8
0
6
CONTINUOUS
66
1
10
0.0
20
0.0
30
0.000000
0
VERTEX
8
0
10
741.000000
20
488.000000
30
0.000000
0
VERTEX
8
0
10
740.000000
20
489.000000
30
0.000000
0
VERTEX
8
0
10
734.000000
20
489.000000
30
0.000000
0
VERTEX
8
0
10
729.000000
20
483.000000
30
0.000000
0
VERTEX
8
0
10
730.000000
20
477.000000
30
0.000000
0
VERTEX
8
0
10
738.000000
20
472.000000
30
0.000000
0
VERTEX
8
0
10
742.000000
20
474.000000
30
0.000000
0
VERTEX
8
0
10
745.000000
20
478.000000
30
0.000000
0
VERTEX
8
0
10
745.000000
20
484.000000
30
0.000000
0
VERTEX
8
0
10
741.000000
20
488.000000
30
0.000000
0
SEQEND
0
POLYLINE
8
0
6
CONTINUOUS
66
1
10
0.0
20
0.0
30
0.000000
0
VERTEX
8
0
10
703.000000
20
475.000000
30
0.000000
0
VERTEX
8
0
10
705.000000
20
475.000000
30
0.000000
0
VERTEX
8
0
10
704.000000
20
469.000000
30
0.000000
0
VERTEX
8
0
10
703.000000
20
475.000000
30
0.000000
0
SEQEND
0
POLYLINE
8
0
6
CONTINUOUS
66
1
10
0.0
20
0.0
30
0.000000
0
VERTEX
8
0
10
769.000000
20
475.000000
30
0.000000
0
VERTEX
8
0
10
772.000000
20
475.000000
30
0.000000
0
VERTEX
8
0
10
773.000000
20
471.000000
30
0.000000
0
VERTEX
8
0
10
771.000000
20
469.000000
30
0.000000
0
VERTEX
8
0
10
769.000000
20
470.000000
30
0.000000
0
VERTEX
8
0
10
769.000000
20
475.000000
30
0.000000
0
SEQEND
0
POLYLINE
8
0
6
CONTINUOUS
66
1
10
0.0
20
0.0
30
0.000000
0
VERTEX
8
0
10
583.000000
20
467.000000
30
0.000000
0
VERTEX
8
0
10
588.000000
20
467.000000
30
0.000000
0
VERTEX
8
0
10
590.000000
20
461.000000
30
0.000000
0
VERTEX
8
0
10
588.000000
20
458.000000
30
0.000000
0
VERTEX
8
0
10
583.000000
20
458.000000
30
0.000000
0
VERTEX
8
0
10
581.000000
20
460.000000
30
0.000000
0
VERTEX
8
0
10
581.000000
20
465.000000
30
0.000000
0
VERTEX
8
0
10
583.000000
20
467.000000
30
0.000000
0
SEQEND
0
POLYLINE
8
0
6
CONTINUOUS
66
1
10
0.0
20
0.0
30
0.000000
0
VERTEX
8
0
10
762.000000
20
461.000000
30
0.000000
0
VERTEX
8
0
10
765.000000
20
461.000000
30
0.000000
0
VERTEX
8
0
10
765.000000
20
455.000000
30
0.000000
0
VERTEX
8
0
10
762.000000
20
456.000000
30
0.000000
0
VERTEX
8
0
10
762.000000
20
461.000000
30
0.000000
0
SEQEND
0
POLYLINE
8
0
6
CONTINUOUS
66
1
10
0.0
20
0.0
30
0.000000
0
VERTEX
8
0
10
431.000000
20
454.000000
30
0.000000
0
VERTEX
8
0
10
432.000000
20
454.000000
30
0.000000
0
VERTEX
8
0
10
433.000000
20
451.000000
30
0.000000
0
VERTEX
8
0
10
431.000000
20
449.000000
30
0.000000
0
VERTEX
8
0
10
431.000000
20
443.000000
30
0.000000
0
VERTEX
8
0
10
429.000000
20
443.000000
30
0.000000
0
VERTEX
8
0
10
429.000000
20
447.000000
30
0.000000
0
VERTEX
8
0
10
427.000000
20
447.000000
30
0.000000
0
VERTEX
8
0
10
426.000000
20
444.000000
30
0.000000
0
VERTEX
8
0
10
422.000000
20
444.000000
30
0.000000
0
VERTEX
8
0
10
422.000000
20
453.000000
30
0.000000
0
VERTEX
8
0
10
429.000000
20
452.000000
30
0.000000
0
VERTEX
8
0
10
431.000000
20
454.000000
30
0.000000
0
SEQEND
0
POLYLINE
8
0
6
CONTINUOUS
66
1
10
0.0
20
0.0
30
0.000000
0
VERTEX
8
0
10
437.000000
20
454.000000
30
0.000000
0
VERTEX
8
0
10
439.000000
20
453.000000
30
0.000000
0
VERTEX
8
0
10
445.000000
20
453.000000
30
0.000000
0
VERTEX
8
0
10
445.000000
20
443.000000
30
0.000000
0
VERTEX
8
0
10
441.000000
20
445.000000
30
0.000000
0
VERTEX
8
0
10
438.000000
20
445.000000
30
0.000000
0
VERTEX
8
0
10
436.000000
20
443.000000
30
0.000000
0
VERTEX
8
0
10
435.000000
20
450.000000
30
0.000000
0
VERTEX
8
0
10
437.000000
20
454.000000
30
0.000000
0
SEQEND
0
POLYLINE
8
0
6
CONTINUOUS
66
1
10
0.0
20
0.0
30
0.000000
0
VERTEX
8
0
10
546.000000
20
454.000000
30
0.000000
0
VERTEX
8
0
10
558.000000
20
454.000000
30
0.000000
0
VERTEX
8
0
10
561.000000
20
452.000000
30
0.000000
0
VERTEX
8
0
10
561.000000
20
437.000000
30
0.000000
0
VERTEX
8
0
10
558.000000
20
435.000000
30
0.000000
0
VERTEX
8
0
10
546.000000
20
435.000000
30
0.000000
0
VERTEX
8
0
10
543.000000
20
437.000000
30
0.000000
0
VERTEX
8
0
10
543.000000
20
452.000000
30
0.000000
0
VERTEX
8
0
10
546.000000
20
454.000000
30
0.000000
0
SEQEND
0
POLYLINE
8
0
6
CONTINUOUS
66
1
10
0.0
20
0.0
30
0.000000
0
VERTEX
8
0
10
592.000000
20
454.000000
30
0.000000
0
VERTEX
8
0
10
602.000000
20
454.000000
30
0.000000
0
VERTEX
8
0
10
605.000000
20
452.000000
30
0.000000
0
VERTEX
8
0
10
606.000000
20
439.000000
30
0.000000
0
VERTEX
8
0
10
603.000000
20
435.000000
30
0.000000
0
VERTEX
8
0
10
590.000000
20
435.000000
30
0.000000
0
VERTEX
8
0
10
587.000000
20
437.000000
30
0.000000
0
VERTEX
8
0
10
587.000000
20
451.000000
30
0.000000
0
VERTEX
8
0
10
590.000000
20
454.000000
30
0.000000
0
VERTEX
8
0
10
592.000000
20
454.000000
30
0.000000
0
SEQEND
0
POLYLINE
8
0
6
CONTINUOUS
66
1
10
0.0
20
0.0
30
0.000000
0
VERTEX
8
0
10
612.000000
20
454.000000
30
0.000000
0
VERTEX
8
0
10
625.000000
20
454.000000
30
0.000000
0
VERTEX
8
0
10
628.000000
20
451.000000
30
0.000000
0
VERTEX
8
0
10
628.000000
20
438.000000
30
0.000000
0
VERTEX
8
0
10
625.000000
20
435.000000
30
0.000000
0
VERTEX
8
0
10
612.000000
20
435.000000
30
0.000000
0
VERTEX
8
0
10
609.000000
20
439.000000
30
0.000000
0
VERTEX
8
0
10
609.000000
20
450.000000
30
0.000000
0
VERTEX
8
0
10
612.000000
20
454.000000
30
0.000000
0
SEQEND
0
POLYLINE
8
0
6
CONTINUOUS
66
1
10
0.0
20
0.0
30
0.000000
0
VERTEX
8
0
10
635.000000
20
454.000000
30
0.000000
0
VERTEX
8
0
10
646.000000
20
454.000000
30
0.000000
0
VERTEX
8
0
10
650.000000
20
452.000000
30
0.000000
0
VERTEX
8
0
10
650.000000
20
437.000000
30
0.000000
0
VERTEX
8
0
10
647.000000
20
435.000000
30
0.000000
0
VERTEX
8
0
10
634.000000
20
435.000000
30
0.000000
0
VERTEX
8
0
10
631.000000
20
441.000000
30
0.000000
0
VERTEX
8
0
10
631.000000
20
450.000000
30
0.000000
0
VERTEX
8
0
10
635.000000
20
454.000000
30
0.000000
0
SEQEND
0
POLYLINE
8
0
6
CONTINUOUS
66
1
10
0.0
20
0.0
30
0.000000
0
VERTEX
8
0
10
728.000000
20
454.000000
30
0.000000
0
VERTEX
8
0
10
731.000000
20
453.000000
30
0.000000
0
VERTEX
8
0
10
733.000000
20
454.000000
30
0.000000
0
VERTEX
8
0
10
736.000000
20
452.000000
30
0.000000
0
VERTEX
8
0
10
734.000000
20
447.000000
30
0.000000
0
VERTEX
8
0
10
736.000000
20
445.000000
30
0.000000
0
VERTEX
8
0
10
735.000000
20
443.000000
30
0.000000
0
VERTEX
8
0
10
725.000000
20
444.000000
30
0.000000
0
VERTEX
8
0
10
727.000000
20
445.000000
30
0.000000
0
VERTEX
8
0
10
725.000000
20
448.000000
30
0.000000
0
VERTEX
8
0
10
725.000000
20
452.000000
30
0.000000
0
VERTEX
8
0
10
728.000000
20
454.000000
30
0.000000
0
SEQEND
0
POLYLINE
8
0
6
CONTINUOUS
66
1
10
0.0
20
0.0
30
0.000000
0
VERTEX
8
0
10
740.000000
20
454.000000
30
0.000000
0
VERTEX
8
0
10
744.000000
20
454.000000
30
0.000000
0
VERTEX
8
0
10
748.000000
20
453.000000
30
0.000000
0
VERTEX
8
0
10
749.000000
20
444.000000
30
0.000000
0
VERTEX
8
0
10
738.000000
20
444.000000
30
0.000000
0
VERTEX
8
0
10
740.000000
20
446.000000
30
0.000000
0
VERTEX
8
0
10
740.000000
20
454.000000
30
0.000000
0
SEQEND
0
POLYLINE
8
0
6
CONTINUOUS
66
1
10
0.0
20
0.0
30
0.000000
0
VERTEX
8
0
10
523.000000
20
453.000000
30
0.000000
0
VERTEX
8
0
10
528.000000
20
453.000000
30
0.000000
0
VERTEX
8
0
10
529.000000
20
454.000000
30
0.000000
0
VERTEX
8
0
10
539.000000
20
452.000000
30
0.000000
0
VERTEX
8
0
10
539.000000
20
437.000000
30
0.000000
0
VERTEX
8
0
10
537.000000
20
435.000000
30
0.000000
0
VERTEX
8
0
10
523.000000
20
435.000000
30
0.000000
0
VERTEX
8
0
10
520.000000
20
438.000000
30
0.000000
0
VERTEX
8
0
10
520.000000
20
450.000000
30
0.000000
0
VERTEX
8
0
10
523.000000
20
453.000000
30
0.000000
0
SEQEND
0
POLYLINE
8
0
6
CONTINUOUS
66
1
10
0.0
20
0.0
30
0.000000
0
VERTEX
8
0
10
567.000000
20
453.000000
30
0.000000
0
VERTEX
8
0
10
568.000000
20
454.000000
30
0.000000
0
VERTEX
8
0
10
576.000000
20
454.000000
30
0.000000
0
VERTEX
8
0
10
582.000000
20
453.000000
30
0.000000
0
VERTEX
8
0
10
584.000000
20
450.000000
30
0.000000
0
VERTEX
8
0
10
584.000000
20
439.000000
30
0.000000
0
VERTEX
8
0
10
581.000000
20
435.000000
30
0.000000
0
VERTEX
8
0
10
566.000000
20
436.000000
30
0.000000
0
VERTEX
8
0
10
565.000000
20
451.000000
30
0.000000
0
VERTEX
8
0
10
567.000000
20
453.000000
30
0.000000
0
SEQEND
0
POLYLINE
8
0
6
CONTINUOUS
66
1
10
0.0
20
0.0
30
0.000000
0
VERTEX
8
0
10
441.000000
20
452.000000
30
0.000000
0
VERTEX
8
0
10
439.000000
20
453.000000
30
0.000000
0
VERTEX
8
0
10
438.000000
20
452.000000
30
0.000000
0
VERTEX
8
0
10
441.000000
20
452.000000
30
0.000000
0
SEQEND
0
POLYLINE
8
0
6
CONTINUOUS
66
1
10
0.0
20
0.0
30
0.000000
0
VERTEX
8
0
10
559.000000
20
452.000000
30
0.000000
0
VERTEX
8
0
10
558.000000
20
453.000000
30
0.000000
0
VERTEX
8
0
10
546.000000
20
453.000000
30
0.000000
0
VERTEX
8
0
10
544.000000
20
451.000000
30
0.000000
0
VERTEX
8
0
10
544.000000
20
438.000000
30
0.000000
0
VERTEX
8
0
10
546.000000
20
436.000000
30
0.000000
0
VERTEX
8
0
10
558.000000
20
436.000000
30
0.000000
0
VERTEX
8
0
10
560.000000
20
438.000000
30
0.000000
0
VERTEX
8
0
10
559.000000
20
452.000000
30
0.000000
0
SEQEND
0
POLYLINE
8
0
6
CONTINUOUS
66
1
10
0.0
20
0.0
30
0.000000
0
VERTEX
8
0
10
581.000000
20
452.000000
30
0.000000
0
VERTEX
8
0
10
580.000000
20
453.000000
30
0.000000
0
VERTEX
8
0
10
567.000000
20
452.000000
30
0.000000
0
VERTEX
8
0
10
566.000000
20
438.000000
30
0.000000
0
VERTEX
8
0
10
568.000000
20
436.000000
30
0.000000
0
VERTEX
8
0
10
582.000000
20
437.000000
30
0.000000
0
VERTEX
8
0
10
583.000000
20
447.000000
30
0.000000
0
VERTEX
8
0
10
581.000000
20
452.000000
30
0.000000
0
SEQEND
0
POLYLINE
8
0
6
CONTINUOUS
66
1
10
0.0
20
0.0
30
0.000000
0
VERTEX
8
0
10
603.000000
20
452.000000
30
0.000000
0
VERTEX
8
0
10
602.000000
20
453.000000
30
0.000000
0
VERTEX
8
0
10
591.000000
20
453.000000
30
0.000000
0
VERTEX
8
0
10
588.000000
20
450.000000
30
0.000000
0
VERTEX
8
0
10
588.000000
20
438.000000
30
0.000000
0
VERTEX
8
0
10
590.000000
20
436.000000
30
0.000000
0
VERTEX
8
0
10
604.000000
20
437.000000
30
0.000000
0
VERTEX
8
0
10
605.000000
20
450.000000
30
0.000000
0
VERTEX
8
0
10
603.000000
20
452.000000
30
0.000000
0
SEQEND
0
POLYLINE
8
0
6
CONTINUOUS
66
1
10
0.0
20
0.0
30
0.000000
0
VERTEX
8
0
10
647.000000
20
452.000000
30
0.000000
0
VERTEX
8
0
10
646.000000
20
453.000000
30
0.000000
0
VERTEX
8
0
10
635.000000
20
453.000000
30
0.000000
0
VERTEX
8
0
10
632.000000
20
450.000000
30
0.000000
0
VERTEX
8
0
10
633.000000
20
437.000000
30
0.000000
0
VERTEX
8
0
10
647.000000
20
436.000000
30
0.000000
0
VERTEX
8
0
10
649.000000
20
438.000000
30
0.000000
0
VERTEX
8
0
10
649.000000
20
451.000000
30
0.000000
0
VERTEX
8
0
10
647.000000
20
452.000000
30
0.000000
0
SEQEND
0
POLYLINE
8
0
6
CONTINUOUS
66
1
10
0.0
20
0.0
30
0.000000
0
VERTEX
8
0
10
626.000000
20
451.000000
30
0.000000
0
VERTEX
8
0
10
625.000000
20
453.000000
30
0.000000
0
VERTEX
8
0
10
611.000000
20
452.000000
30
0.000000
0
VERTEX
8
0
10
610.000000
20
440.000000
30
0.000000
0
VERTEX
8
0
10
613.000000
20
436.000000
30
0.000000
0
VERTEX
8
0
10
624.000000
20
436.000000
30
0.000000
0
VERTEX
8
0
10
627.000000
20
439.000000
30
0.000000
0
VERTEX
8
0
10
626.000000
20
451.000000
30
0.000000
0
SEQEND
0
POLYLINE
8
0
6
CONTINUOUS
66
1
10
0.0
20
0.0
30
0.000000
0
VERTEX
8
0
10
732.000000
20
447.000000
30
0.000000
0
VERTEX
8
0
10
731.000000
20
448.000000
30
0.000000
0
VERTEX
8
0
10
731.000000
20
445.000000
30
0.000000
0
VERTEX
8
0
10
732.000000
20
447.000000
30
0.000000
0
SEQEND
0
POLYLINE
8
0
6
CONTINUOUS
66
1
10
0.0
20
0.0
30
0.000000
0
VERTEX
8
0
10
537.000000
20
437.000000
30
0.000000
0
VERTEX
8
0
10
538.000000
20
438.000000
30
0.000000
0
VERTEX
8
0
10
538.000000
20
451.000000
30
0.000000
0
VERTEX
8
0
10
536.000000
20
453.000000
30
0.000000
0
VERTEX
8
0
10
524.000000
20
453.000000
30
0.000000
0
VERTEX
8
0
10
521.000000
20
448.000000
30
0.000000
0
VERTEX
8
0
10
521.000000
20
439.000000
30
0.000000
0
VERTEX
8
0
10
524.000000
20
436.000000
30
0.000000
0
VERTEX
8
0
10
537.000000
20
437.000000
30
0.000000
0
SEQEND
0
POLYLINE
8
0
6
CONTINUOUS
66
1
10
0.0
20
0.0
30
0.000000
0
VERTEX
8
0
10
529.000000
20
432.000000
30
0.000000
0
VERTEX
8
0
10
531.000000
20
431.000000
30
0.000000
0
VERTEX
8
0
10
530.000000
20
423.000000
30
0.000000
0
VERTEX
8
0
10
530.000000
20
428.000000
30
0.000000
0
VERTEX
8
0
10
528.000000
20
430.000000
30
0.000000
0
VERTEX
8
0
10
529.000000
20
432.000000
30
0.000000
0
SEQEND
0
POLYLINE
8
0
6
CONTINUOUS
66
1
10
0.0
20
0.0
30
0.000000
0
VERTEX
8
0
10
551.000000
20
432.000000
30
0.000000
0
VERTEX
8
0
10
554.000000
20
432.000000
30
0.000000
0
VERTEX
8
0
10
555.000000
20
423.000000
30
0.000000
0
VERTEX
8
0
10
551.000000
20
423.000000
30
0.000000
0
VERTEX
8
0
10
554.000000
20
429.000000
30
0.000000
0
VERTEX
8
0
10
551.000000
20
430.000000
30
0.000000
0
VERTEX
8
0
10
551.000000
20
432.000000
30
0.000000
0
SEQEND
0
POLYLINE
8
0
6
CONTINUOUS
66
1
10
0.0
20
0.0
30
0.000000
0
VERTEX
8
0
10
573.000000
20
432.000000
30
0.000000
0
VERTEX
8
0
10
577.000000
20
432.000000
30
0.000000
0
VERTEX
8
0
10
578.000000
20
425.000000
30
0.000000
0
VERTEX
8
0
10
576.000000
20
423.000000
30
0.000000
0
VERTEX
8
0
10
573.000000
20
423.000000
30
0.000000
0
VERTEX
8
0
10
573.000000
20
425.000000
30
0.000000
0
VERTEX
8
0
10
576.000000
20
426.000000
30
0.000000
0
VERTEX
8
0
10
574.000000
20
427.000000
30
0.000000
0
VERTEX
8
0
10
575.000000
20
430.000000
30
0.000000
0
VERTEX
8
0
10
573.000000
20
432.000000
30
0.000000
0
SEQEND
0
POLYLINE
8
0
6
CONTINUOUS
66
1
10
0.0
20
0.0
30
0.000000
0
VERTEX
8
0
10
594.000000
20
432.000000
30
0.000000
0
VERTEX
8
0
10
601.000000
20
432.000000
30
0.000000
0
VERTEX
8
0
10
602.000000
20
426.000000
30
0.000000
0
VERTEX
8
0
10
597.000000
20
423.000000
30
0.000000
0
VERTEX
8
0
10
593.000000
20
425.000000
30
0.000000
0
VERTEX
8
0
10
594.000000
20
432.000000
30
0.000000
0
SEQEND
0
POLYLINE
8
0
6
CONTINUOUS
66
1
10
0.0
20
0.0
30
0.000000
0
VERTEX
8
0
10
619.000000
20
432.000000
30
0.000000
0
VERTEX
8
0
10
624.000000
20
430.000000
30
0.000000
0
VERTEX
8
0
10
624.000000
20
426.000000
30
0.000000
0
VERTEX
8
0
10
621.000000
20
426.000000
30
0.000000
0
VERTEX
8
0
10
620.000000
20
423.000000
30
0.000000
0
VERTEX
8
0
10
618.000000
20
426.000000
30
0.000000
0
VERTEX
8
0
10
615.000000
20
426.000000
30
0.000000
0
VERTEX
8
0
10
615.000000
20
430.000000
30
0.000000
0
VERTEX
8
0
10
619.000000
20
432.000000
30
0.000000
0
SEQEND
0
POLYLINE
8
0
6
CONTINUOUS
66
1
10
0.0
20
0.0
30
0.000000
0
VERTEX
8
0
10
638.000000
20
432.000000
30
0.000000
0
VERTEX
8
0
10
640.000000
20
431.000000
30
0.000000
0
VERTEX
8
0
10
644.000000
20
432.000000
30
0.000000
0
VERTEX
8
0
10
646.000000
20
429.000000
30
0.000000
0
VERTEX
8
0
10
646.000000
20
423.000000
30
0.000000
0
VERTEX
8
0
10
637.000000
20
423.000000
30
0.000000
0
VERTEX
8
0
10
638.000000
20
432.000000
30
0.000000
0
SEQEND
0
POLYLINE
8
0
6
CONTINUOUS
66
1
10
0.0
20
0.0
30
0.000000
0
VERTEX
8
0
10
622.000000
20
429.000000
30
0.000000
0
VERTEX
8
0
10
621.000000
20
430.000000
30
0.000000
0
VERTEX
8
0
10
621.000000
20
428.000000
30
0.000000
0
VERTEX
8
0
10
622.000000
20
429.000000
30
0.000000
0
SEQEND
0
POLYLINE
8
0
6
CONTINUOUS
66
1
10
0.0
20
0.0
30
0.000000
0
VERTEX
8
0
10
431.000000
20
409.000000
30
0.000000
0
VERTEX
8
0
10
433.000000
20
408.000000
30
0.000000
0
VERTEX
8
0
10
438.000000
20
409.000000
30
0.000000
0
VERTEX
8
0
10
437.000000
20
401.000000
30
0.000000
0
VERTEX
8
0
10
430.000000
20
402.000000
30
0.000000
0
VERTEX
8
0
10
431.000000
20
409.000000
30
0.000000
0
SEQEND
0
POLYLINE
8
0
6
CONTINUOUS
66
1
10
0.0
20
0.0
30
0.000000
0
VERTEX
8
0
10
443.000000
20
409.000000
30
0.000000
0
VERTEX
8
0
10
447.000000
20
409.000000
30
0.000000
0
VERTEX
8
0
10
449.000000
20
408.000000
30
0.000000
0
VERTEX
8
0
10
448.000000
20
402.000000
30
0.000000
0
VERTEX
8
0
10
441.000000
20
402.000000
30
0.000000
0
VERTEX
8
0
10
441.000000
20
407.000000
30
0.000000
0
VERTEX
8
0
10
443.000000
20
409.000000
30
0.000000
0
SEQEND
0
POLYLINE
8
0
6
CONTINUOUS
66
1
10
0.0
20
0.0
30
0.000000
0
VERTEX
8
0
10
577.000000
20
409.000000
30
0.000000
0
VERTEX
8
0
10
583.000000
20
409.000000
30
0.000000
0
VERTEX
8
0
10
584.000000
20
402.000000
30
0.000000
0
VERTEX
8
0
10
577.000000
20
401.000000
30
0.000000
0
VERTEX
8
0
10
577.000000
20
409.000000
30
0.000000
0
SEQEND
0
POLYLINE
8
0
6
CONTINUOUS
66
1
10
0.0
20
0.0
30
0.000000
0
VERTEX
8
0
10
589.000000
20
409.000000
30
0.000000
0
VERTEX
8
0
10
593.000000
20
409.000000
30
0.000000
0
VERTEX
8
0
10
595.000000
20
408.000000
30
0.000000
0
VERTEX
8
0
10
594.000000
20
401.000000
30
0.000000
0
VERTEX
8
0
10
587.000000
20
402.000000
30
0.000000
0
VERTEX
8
0
10
587.000000
20
408.000000
30
0.000000
0
VERTEX
8
0
10
589.000000
20
409.000000
30
0.000000
0
SEQEND
0
POLYLINE
8
0
6
CONTINUOUS
66
1
10
0.0
20
0.0
30
0.000000
0
VERTEX
8
0
10
723.000000
20
409.000000
30
0.000000
0
VERTEX
8
0
10
725.000000
20
408.000000
30
0.000000
0
VERTEX
8
0
10
730.000000
20
409.000000
30
0.000000
0
VERTEX
8
0
10
730.000000
20
402.000000
30
0.000000
0
VERTEX
8
0
10
723.000000
20
401.000000
30
0.000000
0
VERTEX
8
0
10
723.000000
20
409.000000
30
0.000000
0
SEQEND
0
POLYLINE
8
0
6
CONTINUOUS
66
1
10
0.0
20
0.0
30
0.000000
0
VERTEX
8
0
10
735.000000
20
409.000000
30
0.000000
0
VERTEX
8
0
10
739.000000
20
409.000000
30
0.000000
0
VERTEX
8
0
10
741.000000
20
408.000000
30
0.000000
0
VERTEX
8
0
10
740.000000
20
401.000000
30
0.000000
0
VERTEX
8
0
10
733.000000
20
402.000000
30
0.000000
0
VERTEX
8
0
10
733.000000
20
408.000000
30
0.000000
0
VERTEX
8
0
10
735.000000
20
409.000000
30
0.000000
0
SEQEND
0
POLYLINE
8
0
6
CONTINUOUS
66
1
10
0.0
20
0.0
30
0.000000
0
VERTEX
8
0
10
434.000000
20
398.000000
30
0.000000
0
VERTEX
8
0
10
445.000000
20
398.000000
30
0.000000
0
VERTEX
8
0
10
450.000000
20
397.000000
30
0.000000
0
VERTEX
8
0
10
464.000000
20
390.000000
30
0.000000
0
VERTEX
8
0
10
473.000000
20
380.000000
30
0.000000
0
VERTEX
8
0
10
477.000000
20
372.000000
30
0.000000
0
VERTEX
8
0
10
479.000000
20
362.000000
30
0.000000
0
VERTEX
8
0
10
477.000000
20
345.000000
30
0.000000
0
VERTEX
8
0
10
470.000000
20
333.000000
30
0.000000
0
VERTEX
8
0
10
461.000000
20
325.000000
30
0.000000
0
VERTEX
8
0
10
453.000000
20
321.000000
30
0.000000
0
VERTEX
8
0
10
444.000000
20
319.000000
30
0.000000
0
VERTEX
8
0
10
429.000000
20
320.000000
30
0.000000
0
VERTEX
8
0
10
418.000000
20
325.000000
30
0.000000
0
VERTEX
8
0
10
408.000000
20
334.000000
30
0.000000
0
VERTEX
8
0
10
402.000000
20
344.000000
30
0.000000
0
VERTEX
8
0
10
400.000000
20
353.000000
30
0.000000
0
VERTEX
8
0
10
401.000000
20
370.000000
30
0.000000
0
VERTEX
8
0
10
408.000000
20
383.000000
30
0.000000
0
VERTEX
8
0
10
419.000000
20
393.000000
30
0.000000
0
VERTEX
8
0
10
434.000000
20
398.000000
30
0.000000
0
SEQEND
0
POLYLINE
8
0
6
CONTINUOUS
66
1
10
0.0
20
0.0
30
0.000000
0
VERTEX
8
0
10
580.000000
20
398.000000
30
0.000000
0
VERTEX
8
0
10
591.000000
20
398.000000
30
0.000000
0
VERTEX
8
0
10
596.000000
20
397.000000
30
0.000000
0
VERTEX
8
0
10
610.000000
20
390.000000
30
0.000000
0
VERTEX
8
0
10
618.000000
20
382.000000
30
0.000000
0
VERTEX
8
0
10
622.000000
20
375.000000
30
0.000000
0
VERTEX
8
0
10
625.000000
20
360.000000
30
0.000000
0
VERTEX
8
0
10
623.000000
20
345.000000
30
0.000000
0
VERTEX
8
0
10
619.000000
20
337.000000
30
0.000000
0
VERTEX
8
0
10
607.000000
20
325.000000
30
0.000000
0
VERTEX
8
0
10
599.000000
20
321.000000
30
0.000000
0
VERTEX
8
0
10
590.000000
20
319.000000
30
0.000000
0
VERTEX
8
0
10
575.000000
20
320.000000
30
0.000000
0
VERTEX
8
0
10
569.000000
20
322.000000
30
0.000000
0
VERTEX
8
0
10
560.000000
20
328.000000
30
0.000000
0
VERTEX
8
0
10
551.000000
20
338.000000
30
0.000000
0
VERTEX
8
0
10
546.000000
20
352.000000
30
0.000000
0
VERTEX
8
0
10
546.000000
20
366.000000
30
0.000000
0
VERTEX
8
0
10
551.000000
20
379.000000
30
0.000000
0
VERTEX
8
0
10
565.000000
20
393.000000
30
0.000000
0
VERTEX
8
0
10
580.000000
20
398.000000
30
0.000000
0
SEQEND
0
POLYLINE
8
0
6
CONTINUOUS
66
1
10
0.0
20
0.0
30
0.000000
0
VERTEX
8
0
10
725.000000
20
398.000000
30
0.000000
0
VERTEX
8
0
10
737.000000
20
398.000000
30
0.000000
0
VERTEX
8
0
10
753.000000
20
392.000000
30
0.000000
0
VERTEX
8
0
10
763.000000
20
383.000000
30
0.000000
0
VERTEX
8
0
10
769.000000
20
372.000000
30
0.000000
0
VERTEX
8
0
10
771.000000
20
359.000000
30
0.000000
0
VERTEX
8
0
10
769.000000
20
345.000000
30
0.000000
0
VERTEX
8
0
10
765.000000
20
337.000000
30
0.000000
0
VERTEX
8
0
10
753.000000
20
325.000000
30
0.000000
0
VERTEX
8
0
10
745.000000
20
321.000000
30
0.000000
0
VERTEX
8
0
10
735.000000
20
319.000000
30
0.000000
0
VERTEX
8
0
10
721.000000
20
320.000000
30
0.000000
0
VERTEX
8
0
10
706.000000
20
328.000000
30
0.000000
0
VERTEX
8
0
10
700.000000
20
334.000000
30
0.000000
0
VERTEX
8
0
10
694.000000
20
344.000000
30
0.000000
0
VERTEX
8
0
10
692.000000
20
352.000000
30
0.000000
0
VERTEX
8
0
10
692.000000
20
366.000000
30
0.000000
0
VERTEX
8
0
10
696.000000
20
377.000000
30
0.000000
0
VERTEX
8
0
10
704.000000
20
388.000000
30
0.000000
0
VERTEX
8
0
10
717.000000
20
396.000000
30
0.000000
0
VERTEX
8
0
10
725.000000
20
398.000000
30
0.000000
0
SEQEND
0
POLYLINE
8
0
6
CONTINUOUS
66
1
10
0.0
20
0.0
30
0.000000
0
VERTEX
8
0
10
446.000000
20
396.000000
30
0.000000
0
VERTEX
8
0
10
445.000000
20
397.000000
30
0.000000
0
VERTEX
8
0
10
429.000000
20
396.000000
30
0.000000
0
VERTEX
8
0
10
418.000000
20
391.000000
30
0.000000
0
VERTEX
8
0
10
411.000000
20
385.000000
30
0.000000
0
VERTEX
8
0
10
403.000000
20
373.000000
30
0.000000
0
VERTEX
8
0
10
401.000000
20
364.000000
30
0.000000
0
VERTEX
8
0
10
402.000000
20
348.000000
30
0.000000
0
VERTEX
8
0
10
407.000000
20
337.000000
30
0.000000
0
VERTEX
8
0
10
412.000000
20
331.000000
30
0.000000
0
VERTEX
8
0
10
426.000000
20
322.000000
30
0.000000
0
VERTEX
8
0
10
435.000000
20
320.000000
30
0.000000
0
VERTEX
8
0
10
453.000000
20
322.000000
30
0.000000
0
VERTEX
8
0
10
463.000000
20
328.000000
30
0.000000
0
VERTEX
8
0
10
475.000000
20
343.000000
30
0.000000
0
VERTEX
8
0
10
477.000000
20
349.000000
30
0.000000
0
VERTEX
8
0
10
477.000000
20
368.000000
30
0.000000
0
VERTEX
8
0
10
471.000000
20
381.000000
30
0.000000
0
VERTEX
8
0
10
459.000000
20
392.000000
30
0.000000
0
VERTEX
8
0
10
450.000000
20
396.000000
30
0.000000
0
VERTEX
8
0
10
446.000000
20
396.000000
30
0.000000
0
SEQEND
0
POLYLINE
8
0
6
CONTINUOUS
66
1
10
0.0
20
0.0
30
0.000000
0
VERTEX
8
0
10
591.000000
20
396.000000
30
0.000000
0
VERTEX
8
0
10
590.000000
20
397.000000
30
0.000000
0
VERTEX
8
0
10
580.000000
20
397.000000
30
0.000000
0
VERTEX
8
0
10
571.000000
20
395.000000
30
0.000000
0
VERTEX
8
0
10
564.000000
20
391.000000
30
0.000000
0
VERTEX
8
0
10
557.000000
20
385.000000
30
0.000000
0
VERTEX
8
0
10
549.000000
20
373.000000
30
0.000000
0
VERTEX
8
0
10
547.000000
20
364.000000
30
0.000000
0
VERTEX
8
0
10
548.000000
20
348.000000
30
0.000000
0
VERTEX
8
0
10
553.000000
20
337.000000
30
0.000000
0
VERTEX
8
0
10
564.000000
20
326.000000
30
0.000000
0
VERTEX
8
0
10
572.000000
20
322.000000
30
0.000000
0
VERTEX
8
0
10
582.000000
20
320.000000
30
0.000000
0
VERTEX
8
0
10
595.000000
20
321.000000
30
0.000000
0
VERTEX
8
0
10
608.000000
20
327.000000
30
0.000000
0
VERTEX
8
0
10
616.000000
20
335.000000
30
0.000000
0
VERTEX
8
0
10
621.000000
20
343.000000
30
0.000000
0
VERTEX
8
0
10
624.000000
20
355.000000
30
0.000000
0
VERTEX
8
0
10
622.000000
20
371.000000
30
0.000000
0
VERTEX
8
0
10
617.000000
20
381.000000
30
0.000000
0
VERTEX
8
0
10
607.000000
20
391.000000
30
0.000000
0
VERTEX
8
0
10
596.000000
20
396.000000
30
0.000000
0
VERTEX
8
0
10
591.000000
20
396.000000
30
0.000000
0
SEQEND
0
POLYLINE
8
0
6
CONTINUOUS
66
1
10
0.0
20
0.0
30
0.000000
0
VERTEX
8
0
10
738.000000
20
396.000000
30
0.000000
0
VERTEX
8
0
10
737.000000
20
397.000000
30
0.000000
0
VERTEX
8
0
10
721.000000
20
396.000000
30
0.000000
0
VERTEX
8
0
10
710.000000
20
391.000000
30
0.000000
0
VERTEX
8
0
10
702.000000
20
384.000000
30
0.000000
0
VERTEX
8
0
10
695.000000
20
373.000000
30
0.000000
0
VERTEX
8
0
10
693.000000
20
365.000000
30
0.000000
0
VERTEX
8
0
10
693.000000
20
353.000000
30
0.000000
0
VERTEX
8
0
10
695.000000
20
344.000000
30
0.000000
0
VERTEX
8
0
10
699.000000
20
337.000000
30
0.000000
0
VERTEX
8
0
10
710.000000
20
326.000000
30
0.000000
0
VERTEX
8
0
10
722.000000
20
321.000000
30
0.000000
0
VERTEX
8
0
10
736.000000
20
320.000000
30
0.000000
0
VERTEX
8
0
10
745.000000
20
322.000000
30
0.000000
0
VERTEX
8
0
10
754.000000
20
327.000000
30
0.000000
0
VERTEX
8
0
10
767.000000
20
343.000000
30
0.000000
0
VERTEX
8
0
10
770.000000
20
353.000000
30
0.000000
0
VERTEX
8
0
10
770.000000
20
363.000000
30
0.000000
0
VERTEX
8
0
10
768.000000
20
371.000000
30
0.000000
0
VERTEX
8
0
10
763.000000
20
381.000000
30
0.000000
0
VERTEX
8
0
10
748.000000
20
394.000000
30
0.000000
0
VERTEX
8
0
10
738.000000
20
396.000000
30
0.000000
0
SEQEND
0
POLYLINE
8
0
6
CONTINUOUS
66
1
10
0.0
20
0.0
30
0.000000
0
VERTEX
8
0
10
248.000000
20
387.000000
30
0.000000
0
VERTEX
8
0
10
273.000000
20
387.000000
30
0.000000
0
VERTEX
8
0
10
273.000000
20
379.000000
30
0.000000
0
VERTEX
8
0
10
248.000000
20
379.000000
30
0.000000
0
VERTEX
8
0
10
248.000000
20
387.000000
30
0.000000
0
SEQEND
0
POLYLINE
8
0
6
CONTINUOUS
66
1
10
0.0
20
0.0
30
0.000000
0
VERTEX
8
0
10
118.000000
20
386.000000
30
0.000000
0
VERTEX
8
0
10
144.000000
20
386.000000
30
0.000000
0
VERTEX
8
0
10
143.000000
20
378.000000
30
0.000000
0
VERTEX
8
0
10
119.000000
20
378.000000
30
0.000000
0
VERTEX
8
0
10
118.000000
20
386.000000
30
0.000000
0
SEQEND
0
POLYLINE
8
0
6
CONTINUOUS
66
1
10
0.0
20
0.0
30
0.000000
0
VERTEX
8
0
10
142.000000
20
385.000000
30
0.000000
0
VERTEX
8
0
10
141.000000
20
386.000000
30
0.000000
0
VERTEX
8
0
10
120.000000
20
386.000000
30
0.000000
0
VERTEX
8
0
10
120.000000
20
379.000000
30
0.000000
0
VERTEX
8
0
10
141.000000
20
379.000000
30
0.000000
0
VERTEX
8
0
10
143.000000
20
381.000000
30
0.000000
0
VERTEX
8
0
10
142.000000
20
385.000000
30
0.000000
0
SEQEND
0
POLYLINE
8
0
6
CONTINUOUS
66
1
10
0.0
20
0.0
30
0.000000
0
VERTEX
8
0
10
431.000000
20
316.000000
30
0.000000
0
VERTEX
8
0
10
433.000000
20
315.000000
30
0.000000
0
VERTEX
8
0
10
438.000000
20
315.000000
30
0.000000
0
VERTEX
8
0
10
438.000000
20
308.000000
30
0.000000
0
VERTEX
8
0
10
431.000000
20
308.000000
30
0.000000
0
VERTEX
8
0
10
431.000000
20
316.000000
30
0.000000
0
SEQEND
0
POLYLINE
8
0
6
CONTINUOUS
66
1
10
0.0
20
0.0
30
0.000000
0
VERTEX
8
0
10
446.000000
20
316.000000
30
0.000000
0
VERTEX
8
0
10
449.000000
20
314.000000
30
0.000000
0
VERTEX
8
0
10
448.000000
20
308.000000
30
0.000000
0
VERTEX
8
0
10
442.000000
20
308.000000
30
0.000000
0
VERTEX
8
0
10
442.000000
20
315.000000
30
0.000000
0
VERTEX
8
0
10
446.000000
20
316.000000
30
0.000000
0
SEQEND
0
POLYLINE
8
0
6
CONTINUOUS
66
1
10
0.0
20
0.0
30
0.000000
0
VERTEX
8
0
10
577.000000
20
316.000000
30
0.000000
0
VERTEX
8
0
10
581.000000
20
315.000000
30
0.000000
0
VERTEX
8
0
10
582.000000
20
316.000000
30
0.000000
0
VERTEX
8
0
10
584.000000
20
314.000000
30
0.000000
0
VERTEX
8
0
10
584.000000
20
308.000000
30
0.000000
0
VERTEX
8
0
10
577.000000
20
308.000000
30
0.000000
0
VERTEX
8
0
10
577.000000
20
316.000000
30
0.000000
0
SEQEND
0
POLYLINE
8
0
6
CONTINUOUS
66
1
10
0.0
20
0.0
30
0.000000
0
VERTEX
8
0
10
591.000000
20
316.000000
30
0.000000
0
VERTEX
8
0
10
593.000000
20
316.000000
30
0.000000
0
VERTEX
8
0
10
595.000000
20
314.000000
30
0.000000
0
VERTEX
8
0
10
594.000000
20
308.000000
30
0.000000
0
VERTEX
8
0
10
588.000000
20
308.000000
30
0.000000
0
VERTEX
8
0
10
588.000000
20
315.000000
30
0.000000
0
VERTEX
8
0
10
591.000000
20
316.000000
30
0.000000
0
SEQEND
0
POLYLINE
8
0
6
CONTINUOUS
66
1
10
0.0
20
0.0
30
0.000000
0
VERTEX
8
0
10
723.000000
20
316.000000
30
0.000000
0
VERTEX
8
0
10
727.000000
20
315.000000
30
0.000000
0
VERTEX
8
0
10
730.000000
20
315.000000
30
0.000000
0
VERTEX
8
0
10
730.000000
20
308.000000
30
0.000000
0
VERTEX
8
0
10
723.000000
20
308.000000
30
0.000000
0
VERTEX
8
0
10
723.000000
20
316.000000
30
0.000000
0
SEQEND
0
POLYLINE
8
0
6
CONTINUOUS
66
1
10
0.0
20
0.0
30
0.000000
0
VERTEX
8
0
10
737.000000
20
316.000000
30
0.000000
0
VERTEX
8
0
10
739.000000
20
316.000000
30
0.000000
0
VERTEX
8
0
10
741.000000
20
314.000000
30
0.000000
0
VERTEX
8
0
10
740.000000
20
308.000000
30
0.000000
0
VERTEX
8
0
10
733.000000
20
309.000000
30
0.000000
0
VERTEX
8
0
10
734.000000
20
315.000000
30
0.000000
0
VERTEX
8
0
10
737.000000
20
316.000000
30
0.000000
0
SEQEND
0
POLYLINE
8
0
6
CONTINUOUS
66
1
10
0.0
20
0.0
30
0.000000
0
VERTEX
8
0
10
367.000000
20
286.000000
30
0.000000
0
VERTEX
8
0
10
393.000000
20
286.000000
30
0.000000
0
VERTEX
8
0
10
395.000000
20
278.000000
30
0.000000
0
VERTEX
8
0
10
417.000000
20
278.000000
30
0.000000
0
VERTEX
8
0
10
418.000000
20
286.000000
30
0.000000
0
VERTEX
8
0
10
444.000000
20
286.000000
30
0.000000
0
VERTEX
8
0
10
446.000000
20
278.000000
30
0.000000
0
VERTEX
8
0
10
468.000000
20
278.000000
30
0.000000
0
VERTEX
8
0
10
470.000000
20
286.000000
30
0.000000
0
VERTEX
8
0
10
496.000000
20
286.000000
30
0.000000
0
VERTEX
8
0
10
497.000000
20
278.000000
30
0.000000
0
VERTEX
8
0
10
519.000000
20
278.000000
30
0.000000
0
VERTEX
8
0
10
521.000000
20
280.000000
30
0.000000
0
VERTEX
8
0
10
521.000000
20
286.000000
30
0.000000
0
VERTEX
8
0
10
547.000000
20
286.000000
30
0.000000
0
VERTEX
8
0
10
547.000000
20
280.000000
30
0.000000
0
VERTEX
8
0
10
549.000000
20
278.000000
30
0.000000
0
VERTEX
8
0
10
571.000000
20
278.000000
30
0.000000
0
VERTEX
8
0
10
572.000000
20
286.000000
30
0.000000
0
VERTEX
8
0
10
598.000000
20
286.000000
30
0.000000
0
VERTEX
8
0
10
600.000000
20
278.000000
30
0.000000
0
VERTEX
8
0
10
622.000000
20
278.000000
30
0.000000
0
VERTEX
8
0
10
624.000000
20
286.000000
30
0.000000
0
VERTEX
8
0
10
650.000000
20
286.000000
30
0.000000
0
VERTEX
8
0
10
651.000000
20
278.000000
30
0.000000
0
VERTEX
8
0
10
673.000000
20
278.000000
30
0.000000
0
VERTEX
8
0
10
675.000000
20
280.000000
30
0.000000
0
VERTEX
8
0
10
675.000000
20
286.000000
30
0.000000
0
VERTEX
8
0
10
701.000000
20
286.000000
30
0.000000
0
VERTEX
8
0
10
702.000000
20
278.000000
30
0.000000
0
VERTEX
8
0
10
725.000000
20
278.000000
30
0.000000
0
VERTEX
8
0
10
727.000000
20
286.000000
30
0.000000
0
VERTEX
8
0
10
753.000000
20
286.000000
30
0.000000
0
VERTEX
8
0
10
754.000000
20
278.000000
30
0.000000
0
VERTEX
8
0
10
776.000000
20
278.000000
30
0.000000
0
VERTEX
8
0
10
778.000000
20
286.000000
30
0.000000
0
VERTEX
8
0
10
804.000000
20
286.000000
30
0.000000
0
VERTEX
8
0
10
805.000000
20
278.000000
30
0.000000
0
VERTEX
8
0
10
830.000000
20
278.000000
30
0.000000
0
VERTEX
8
0
10
830.000000
20
237.000000
30
0.000000
0
VERTEX
8
0
10
832.000000
20
235.000000
30
0.000000
0
VERTEX
8
0
10
838.000000
20
235.000000
30
0.000000
0
VERTEX
8
0
10
838.000000
20
209.000000
30
0.000000
0
VERTEX
8
0
10
832.000000
20
209.000000
30
0.000000
0
VERTEX
8
0
10
830.000000
20
207.000000
30
0.000000
0
VERTEX
8
0
10
830.000000
20
166.000000
30
0.000000
0
VERTEX
8
0
10
805.000000
20
166.000000
30
0.000000
0
VERTEX
8
0
10
804.000000
20
158.000000
30
0.000000
0
VERTEX
8
0
10
778.000000
20
158.000000
30
0.000000
0
VERTEX
8
0
10
776.000000
20
166.000000
30
0.000000
0
VERTEX
8
0
10
754.000000
20
166.000000
30
0.000000
0
VERTEX
8
0
10
752.000000
20
158.000000
30
0.000000
0
VERTEX
8
0
10
727.000000
20
158.000000
30
0.000000
0
VERTEX
8
0
10
725.000000
20
166.000000
30
0.000000
0
VERTEX
8
0
10
702.000000
20
166.000000
30
0.000000
0
VERTEX
8
0
10
701.000000
20
158.000000
30
0.000000
0
VERTEX
8
0
10
675.000000
20
158.000000
30
0.000000
0
VERTEX
8
0
10
675.000000
20
164.000000
30
0.000000
0
VERTEX
8
0
10
673.000000
20
166.000000
30
0.000000
0
VERTEX
8
0
10
650.000000
20
167.000000
30
0.000000
0
VERTEX
8
0
10
649.000000
20
209.000000
30
0.000000
0
VERTEX
8
0
10
522.000000
20
209.000000
30
0.000000
0
VERTEX
8
0
10
520.000000
20
166.000000
30
0.000000
0
VERTEX
8
0
10
497.000000
20
166.000000
30
0.000000
0
VERTEX
8
0
10
495.000000
20
158.000000
30
0.000000
0
VERTEX
8
0
10
470.000000
20
158.000000
30
0.000000
0
VERTEX
8
0
10
468.000000
20
166.000000
30
0.000000
0
VERTEX
8
0
10
446.000000
20
166.000000
30
0.000000
0
VERTEX
8
0
10
444.000000
20
158.000000
30
0.000000
0
VERTEX
8
0
10
418.000000
20
158.000000
30
0.000000
0
VERTEX
8
0
10
417.000000
20
166.000000
30
0.000000
0
VERTEX
8
0
10
395.000000
20
166.000000
30
0.000000
0
VERTEX
8
0
10
393.000000
20
164.000000
30
0.000000
0
VERTEX
8
0
10
393.000000
20
158.000000
30
0.000000
0
VERTEX
8
0
10
367.000000
20
158.000000
30
0.000000
0
VERTEX
8
0
10
367.000000
20
164.000000
30
0.000000
0
VERTEX
8
0
10
365.000000
20
166.000000
30
0.000000
0
VERTEX
8
0
10
341.000000
20
166.000000
30
0.000000
0
VERTEX
8
0
10
341.000000
20
207.000000
30
0.000000
0
VERTEX
8
0
10
339.000000
20
209.000000
30
0.000000
0
VERTEX
8
0
10
333.000000
20
209.000000
30
0.000000
0
VERTEX
8
0
10
332.000000
20
233.000000
30
0.000000
0
VERTEX
8
0
10
333.000000
20
235.000000
30
0.000000
0
VERTEX
8
0
10
339.000000
20
235.000000
30
0.000000
0
VERTEX
8
0
10
341.000000
20
237.000000
30
0.000000
0
VERTEX
8
0
10
340.000000
20
277.000000
30
0.000000
0
VERTEX
8
0
10
365.000000
20
278.000000
30
0.000000
0
VERTEX
8
0
10
367.000000
20
280.000000
30
0.000000
0
VERTEX
8
0
10
367.000000
20
286.000000
30
0.000000
0
SEQEND
0
POLYLINE
8
0
6
CONTINUOUS
66
1
10
0.0
20
0.0
30
0.000000
0
VERTEX
8
0
10
392.000000
20
284.000000
30
0.000000
0
VERTEX
8
0
10
391.000000
20
285.000000
30
0.000000
0
VERTEX
8
0
10
369.000000
20
285.000000
30
0.000000
0
VERTEX
8
0
10
368.000000
20
277.000000
30
0.000000
0
VERTEX
8
0
10
342.000000
20
276.000000
30
0.000000
0
VERTEX
8
0
10
342.000000
20
235.000000
30
0.000000
0
VERTEX
8
0
10
334.000000
20
233.000000
30
0.000000
0
VERTEX
8
0
10
334.000000
20
211.000000
30
0.000000
0
VERTEX
8
0
10
342.000000
20
209.000000
30
0.000000
0
VERTEX
8
0
10
342.000000
20
169.000000
30
0.000000
0
VERTEX
8
0
10
352.000000
20
167.000000
30
0.000000
0
VERTEX
8
0
10
366.000000
20
168.000000
30
0.000000
0
VERTEX
8
0
10
368.000000
20
167.000000
30
0.000000
0
VERTEX
8
0
10
369.000000
20
160.000000
30
0.000000
0
VERTEX
8
0
10
391.000000
20
160.000000
30
0.000000
0
VERTEX
8
0
10
392.000000
20
167.000000
30
0.000000
0
VERTEX
8
0
10
418.000000
20
168.000000
30
0.000000
0
VERTEX
8
0
10
420.000000
20
160.000000
30
0.000000
0
VERTEX
8
0
10
442.000000
20
160.000000
30
0.000000
0
VERTEX
8
0
10
443.000000
20
166.000000
30
0.000000
0
VERTEX
8
0
10
447.000000
20
168.000000
30
0.000000
0
VERTEX
8
0
10
469.000000
20
168.000000
30
0.000000
0
VERTEX
8
0
10
471.000000
20
166.000000
30
0.000000
0
VERTEX
8
0
10
470.000000
20
163.000000
30
0.000000
0
VERTEX
8
0
10
472.000000
20
160.000000
30
0.000000
0
VERTEX
8
0
10
492.000000
20
159.000000
30
0.000000
0
VERTEX
8
0
10
495.000000
20
161.000000
30
0.000000
0
VERTEX
8
0
10
495.000000
20
167.000000
30
0.000000
0
VERTEX
8
0
10
519.000000
20
169.000000
30
0.000000
0
VERTEX
8
0
10
520.000000
20
210.000000
30
0.000000
0
VERTEX
8
0
10
651.000000
20
210.000000
30
0.000000
0
VERTEX
8
0
10
651.000000
20
168.000000
30
0.000000
0
VERTEX
8
0
10
674.000000
20
168.000000
30
0.000000
0
VERTEX
8
0
10
676.000000
20
167.000000
30
0.000000
0
VERTEX
8
0
10
677.000000
20
160.000000
30
0.000000
0
VERTEX
8
0
10
696.000000
20
159.000000
30
0.000000
0
VERTEX
8
0
10
700.000000
20
161.000000
30
0.000000
0
VERTEX
8
0
10
700.000000
20
167.000000
30
0.000000
0
VERTEX
8
0
10
724.000000
20
168.000000
30
0.000000
0
VERTEX
8
0
10
728.000000
20
166.000000
30
0.000000
0
VERTEX
8
0
10
729.000000
20
160.000000
30
0.000000
0
VERTEX
8
0
10
748.000000
20
159.000000
30
0.000000
0
VERTEX
8
0
10
751.000000
20
161.000000
30
0.000000
0
VERTEX
8
0
10
751.000000
20
166.000000
30
0.000000
0
VERTEX
8
0
10
753.000000
20
168.000000
30
0.000000
0
VERTEX
8
0
10
778.000000
20
168.000000
30
0.000000
0
VERTEX
8
0
10
780.000000
20
160.000000
30
0.000000
0
VERTEX
8
0
10
802.000000
20
160.000000
30
0.000000
0
VERTEX
8
0
10
804.000000
20
168.000000
30
0.000000
0
VERTEX
8
0
10
827.000000
20
168.000000
30
0.000000
0
VERTEX
8
0
10
829.000000
20
170.000000
30
0.000000
0
VERTEX
8
0
10
829.000000
20
210.000000
30
0.000000
0
VERTEX
8
0
10
835.000000
20
210.000000
30
0.000000
0
VERTEX
8
0
10
837.000000
20
212.000000
30
0.000000
0
VERTEX
8
0
10
837.000000
20
233.000000
30
0.000000
0
VERTEX
8
0
10
829.000000
20
234.000000
30
0.000000
0
VERTEX
8
0
10
829.000000
20
276.000000
30
0.000000
0
VERTEX
8
0
10
803.000000
20
277.000000
30
0.000000
0
VERTEX
8
0
10
802.000000
20
285.000000
30
0.000000
0
VERTEX
8
0
10
780.000000
20
285.000000
30
0.000000
0
VERTEX
8
0
10
778.000000
20
277.000000
30
0.000000
0
VERTEX
8
0
10
752.000000
20
277.000000
30
0.000000
0
VERTEX
8
0
10
750.000000
20
285.000000
30
0.000000
0
VERTEX
8
0
10
729.000000
20
285.000000
30
0.000000
0
VERTEX
8
0
10
727.000000
20
277.000000
30
0.000000
0
VERTEX
8
0
10
700.000000
20
277.000000
30
0.000000
0
VERTEX
8
0
10
699.000000
20
285.000000
30
0.000000
0
VERTEX
8
0
10
677.000000
20
285.000000
30
0.000000
0
VERTEX
8
0
10
676.000000
20
277.000000
30
0.000000
0
VERTEX
8
0
10
649.000000
20
277.000000
30
0.000000
0
VERTEX
8
0
10
648.000000
20
285.000000
30
0.000000
0
VERTEX
8
0
10
626.000000
20
285.000000
30
0.000000
0
VERTEX
8
0
10
624.000000
20
277.000000
30
0.000000
0
VERTEX
8
0
10
598.000000
20
277.000000
30
0.000000
0
VERTEX
8
0
10
596.000000
20
285.000000
30
0.000000
0
VERTEX
8
0
10
574.000000
20
285.000000
30
0.000000
0
VERTEX
8
0
10
573.000000
20
277.000000
30
0.000000
0
VERTEX
8
0
10
546.000000
20
277.000000
30
0.000000
0
VERTEX
8
0
10
545.000000
20
285.000000
30
0.000000
0
VERTEX
8
0
10
523.000000
20
285.000000
30
0.000000
0
VERTEX
8
0
10
522.000000
20
277.000000
30
0.000000
0
VERTEX
8
0
10
495.000000
20
277.000000
30
0.000000
0
VERTEX
8
0
10
494.000000
20
285.000000
30
0.000000
0
VERTEX
8
0
10
472.000000
20
285.000000
30
0.000000
0
VERTEX
8
0
10
470.000000
20
283.000000
30
0.000000
0
VERTEX
8
0
10
470.000000
20
277.000000
30
0.000000
0
VERTEX
8
0
10
444.000000
20
277.000000
30
0.000000
0
VERTEX
8
0
10
442.000000
20
285.000000
30
0.000000
0
VERTEX
8
0
10
420.000000
20
285.000000
30
0.000000
0
VERTEX
8
0
10
419.000000
20
277.000000
30
0.000000
0
VERTEX
8
0
10
392.000000
20
277.000000
30
0.000000
0
VERTEX
8
0
10
392.000000
20
284.000000
30
0.000000
0
SEQEND
0
POLYLINE
8
0
6
CONTINUOUS
66
1
10
0.0
20
0.0
30
0.000000
0
VERTEX
8
0
10
118.000000
20
224.000000
30
0.000000
0
VERTEX
8
0
10
143.000000
20
224.000000
30
0.000000
0
VERTEX
8
0
10
143.000000
20
215.000000
30
0.000000
0
VERTEX
8
0
10
119.000000
20
215.000000
30
0.000000
0
VERTEX
8
0
10
118.000000
20
224.000000
30
0.000000
0
SEQEND
0
POLYLINE
8
0
6
CONTINUOUS
66
1
10
0.0
20
0.0
30
0.000000
0
VERTEX
8
0
10
248.000000
20
224.000000
30
0.000000
0
VERTEX
8
0
10
273.000000
20
224.000000
30
0.000000
0
VERTEX
8
0
10
272.000000
20
215.000000
30
0.000000
0
VERTEX
8
0
10
249.000000
20
215.000000
30
0.000000
0
VERTEX
8
0
10
247.000000
20
217.000000
30
0.000000
0
VERTEX
8
0
10
248.000000
20
224.000000
30
0.000000
0
SEQEND
0
ENDSEC
0
EOF
